<?xml version="1.0" encoding="UTF-8" standalone="no"?>
<!-- Created with Inkscape (http://www.inkscape.org/) -->

<svg
   xmlns:dc="http://purl.org/dc/elements/1.1/"
   xmlns:cc="http://creativecommons.org/ns#"
   xmlns:rdf="http://www.w3.org/1999/02/22-rdf-syntax-ns#"
   xmlns:svg="http://www.w3.org/2000/svg"
   xmlns="http://www.w3.org/2000/svg"
   xmlns:sodipodi="http://sodipodi.sourceforge.net/DTD/sodipodi-0.dtd"
   xmlns:inkscape="http://www.inkscape.org/namespaces/inkscape"
   width="140.35503mm"
   height="140.28819mm"
   viewBox="0 0 497.32096 497.08415"
   id="svg2"
   version="1.1"
   inkscape:version="0.91 r13725"
   sodipodi:docname="Clock.svg">
  <defs
     id="defs4" />
  <sodipodi:namedview
     id="base"
     pagecolor="#ffffff"
     bordercolor="#666666"
     borderopacity="1.0"
     inkscape:pageopacity="0.0"
     inkscape:pageshadow="2"
     inkscape:zoom="0.7"
     inkscape:cx="35.306201"
     inkscape:cy="-30.652388"
     inkscape:document-units="px"
     inkscape:current-layer="layer1"
     showgrid="false"
     fit-margin-top="0"
     fit-margin-left="0"
     fit-margin-right="0"
     fit-margin-bottom="0"
     inkscape:window-width="1918"
     inkscape:window-height="1042"
     inkscape:window-x="0"
     inkscape:window-y="37"
     inkscape:window-maximized="0" />
  <metadata
     id="metadata7">
    <rdf:RDF>
      <cc:Work
         rdf:about="">
        <dc:format>image/svg+xml</dc:format>
        <dc:type
           rdf:resource="http://purl.org/dc/dcmitype/StillImage" />
        <dc:title></dc:title>
      </cc:Work>
    </rdf:RDF>
  </metadata>
  <g
     inkscape:label="Layer 1"
     inkscape:groupmode="layer"
     id="layer1"
     transform="translate(-145.74728,-211.67799)">
    <g
       id="g5740"
       transform="matrix(0.60903795,0,0,0.60903795,353.18102,105.84164)"
       style="fill:#4d4d4d">
      <path
         style="fill:#4d4d4d"
         d="m 27.81871,890.70278 c -130.85344,-11.59923 -244.3908,-115.00812 -272.05267,-247.78332 -5.40671,-25.95187 -5.40671,-102.36275 0,-128.31462 25.4396,-122.10846 122.2869,-218.95576 244.39536,-244.39536 25.95187,-5.40671 102.36275,-5.40671 128.31462,0 134.67635,28.05795 238.93448,144.35478 247.92477,276.55267 1.98523,29.19194 0.18087,78.37165 -3.52794,96.15731 -8.06465,38.67415 -23.72099,75.97263 -46.10736,109.84269 -45.41446,68.71101 -117.67204,117.74314 -198.28947,134.55414 -16.42869,3.42584 -77.1624,5.46915 -100.65731,3.38649 z M 91.62497,856.72357 C 261.22355,842.5609 380.60727,668.73416 333.69447,504.26215 276.48833,303.70262 29.01587,232.20055 -123.50078,372.16498 -321.29522,553.68082 -176.80394,879.13926 91.62497,856.72357 Z m -40.42478,-9.46451 c -6.52191,-3.54427 -9.51231,-63.81335 -3.60146,-72.58446 3.76872,-5.59241 10.09963,-7.46188 15.68996,-4.63314 10.21106,5.16686 11.02894,72.05005 0.94483,77.26474 -3.54212,1.83171 -9.61645,1.80974 -13.03333,-0.0471 z M -71.64727,809.0106 c -4.31009,-2.17427 -7.30675,-7.19762 -7.30675,-12.24845 0,-10.57276 12.03966,-17.4882 20.9684,-12.044 15.50183,9.45206 2.55517,32.47317 -13.66165,24.29245 z m 247.27031,-0.20445 c -12.55377,-7.65452 -6.61641,-26.99907 7.90351,-25.75051 14.93217,1.28401 18.47083,19.69921 5.1079,26.58155 -3.3477,1.72417 -9.46112,1.33371 -13.01141,-0.83104 z M -69.91872,734.19676 c -5.2219,-2.83337 -7.29213,-10.57609 -4.34936,-16.26678 0.77727,-1.50306 16.41477,-17.3344 34.75,-35.18075 42.16087,-41.03671 69.04769,-67.28464 89.12586,-87.00802 L 65.40792,580.22026 54.77352,549.24121 C 48.9246,532.20273 39.26737,504.08715 33.31302,486.76215 -2.30426,383.12888 0.39164,393.06966 6.15476,386.61961 c 5.15784,-5.77263 16.18694,-4.69279 19.50268,1.90947 1.64802,3.28151 4.70557,12.06347 39.57337,113.66361 32.7306,95.37261 31.43396,83.11977 10.90718,103.06946 -7.35683,7.15 -29.56328,28.73293 -49.34767,47.96206 -19.78439,19.22913 -46.09661,44.92657 -58.47161,57.10542 -27.99021,27.54655 -29.60206,28.55264 -38.23743,23.86713 z m -77.82097,-19.37253 c -7.23943,-2.22591 -9.9416,-6.02509 -9.9416,-13.97762 0,-15.74407 22.81722,-18.61813 26.91758,-3.39054 2.85542,10.60422 -6.81074,20.49368 -16.97598,17.36816 z m 415.5584,-0.55683 c -12.69059,-4.53726 -11.69727,-22.9516 1.42873,-26.48606 11.41214,-3.07297 21.00004,9.26399 15.89956,20.45832 -2.47589,5.43399 -10.84567,8.34547 -17.32829,6.02774 z M -207.36747,576.81192 c -7.72141,-4.70808 -7.50818,-15.60117 0.4069,-20.78584 3.99146,-2.61456 64.45084,-2.69304 68.42441,-0.0888 6.73696,4.41532 7.42563,14.01532 1.40422,19.57489 -4.47646,4.13312 -63.7886,5.23074 -70.23553,1.29977 z m 460.44875,0.38484 c -8.47719,-4.59967 -7.00551,-18.93275 2.27206,-22.12817 4.45369,-1.53396 57.81812,-1.75276 63.19632,-0.25912 10.05755,2.7932 11.92158,17.71972 2.80178,22.43575 -4.29281,2.2199 -64.16791,2.1774 -68.27016,-0.0485 z M -149.07697,469.74644 c -17.0325,-5.23058 -10.0913,-31.69304 7.09903,-27.06417 13.00218,3.50112 13.87787,26.94897 1.01185,27.09353 -0.66836,0.008 -2.1152,0.20406 -3.2152,0.43677 -1.1,0.23272 -3.30305,0.023 -4.89568,-0.46613 z m 416.80555,-0.0515 c -12.03943,-3.53439 -13.57855,-20.01964 -2.40192,-25.72649 9.80809,-5.00807 20.15872,1.40445 20.15872,12.48893 0,9.15882 -8.94229,15.82523 -17.7568,13.23756 z M 52.34873,387.48284 c -6.7643,-3.42277 -7.03002,-4.87678 -7.03002,-38.46744 0,-36.86881 0.97668,-40.15889 12.0146,-40.47273 11.61989,-0.33038 12.43458,2.17365 12.77445,39.26365 0.3428,37.40866 -0.71347,40.92635 -12.28905,40.92635 -1.65,0 -4.11149,-0.56243 -5.46998,-1.24983 z m -124.996,-14.47224 c -7.01802,-3.54031 -9.58958,-13.85075 -5.04602,-20.2316 7.99999,-11.23495 25.39662,-5.76651 25.39662,7.98315 0,10.74376 -10.63944,17.14733 -20.3506,12.24845 z m 247.27031,-0.20445 c -11.72738,-7.15063 -8.04014,-24.49818 5.48332,-25.79762 8.99295,-0.86411 15.21539,4.62163 15.20861,13.40799 -0.009,11.32084 -11.32861,18.09881 -20.69193,12.38963 z"
         id="path5762"
         inkscape:connector-curvature="0" />
      <path
         style="fill:#4d4d4d"
         d="M 25.81871,890.22312 C -156.83744,873.50746 -286.17808,684.12028 -240.1609,500.76215 -190.37099,302.3713 45.57734,202.08862 219.60905,305.35087 515.53168,480.93748 369.49872,921.67477 25.81871,890.22312 Z m 76.53124,-33.8495 c 228.86368,-35.9432 322.47348,-308.162 162.47743,-472.48697 -134.81702,-138.46469 -365.65058,-102.44638 -451.0214,70.3755 -87.91171,177.96558 29.88857,386.17503 228.51273,403.8913 9.85222,0.87877 50.84088,-0.33648 60.03124,-1.77983 z M 52.5168,847.08934 c -6.05471,-2.98394 -6.19809,-3.88327 -6.19809,-38.87753 0,-31.64966 0,-31.64966 3.4,-35.04966 6.86424,-6.86424 19.47574,-2.53648 19.67012,6.75 0.58481,27.93936 -0.36835,60.54628 -1.84285,63.04241 -3.09064,5.23204 -9.32336,6.94676 -15.02918,4.13478 z M -67.66819,809.94243 c -3.67396,-0.56356 -7.55029,-3.68521 -9.38981,-7.56172 -7.33885,-15.46546 16.03117,-26.79017 23.89669,-11.57992 5.01231,9.69273 -3.43579,20.83988 -14.50688,19.14164 z m 247.19594,-0.24781 c -14.7583,-3.12402 -12.58104,-25.93247 2.47548,-25.93247 10.71127,0 16.95919,8.8181 12.9535,18.28212 -2.60743,6.16041 -8.54927,9.10664 -15.42898,7.65035 z M -67.36838,734.65967 c -18.63967,-5.3929 -16.95719,-7.64426 65.68709,-87.89714 58.08212,-56.40145 67,-65.31879 67,-66.99594 0,-1.50904 -3.85794,-13.21615 -14.83069,-45.00444 -51.0971,-148.02942 -49.3229,-142.04641 -43.76931,-147.6 9.69132,-9.69132 16.82172,-4.30219 24.74883,18.7051 63.34997,183.86411 61.00322,176.76035 59.81494,181.06395 -1.02965,3.72907 0.24285,2.44001 -65.46377,66.31573 -20.9,20.31763 -47.675,46.50032 -59.5,58.18377 -13.63434,13.47113 -22.86017,21.80764 -25.21788,22.78704 -4.15333,1.7253 -4.05179,1.72 -8.46921,0.44193 z m -83.25125,-21.72479 c -9.56101,-5.12762 -8.91869,-18.5349 1.13868,-23.76774 8.13329,-4.23175 18.8033,2.71929 18.79811,12.24614 -0.005,9.90664 -11.04843,16.28848 -19.93679,11.5216 z m 416.92274,-0.008 c -9.14166,-4.81379 -9.07469,-18.52767 0.11337,-23.21507 8.74878,-4.46329 18.2223,0.45793 19.4553,10.10648 1.38758,10.8582 -9.71647,18.29654 -19.56867,13.10859 z m -471.4844,-135.56724 c -9.21163,-4.06611 -9.83241,-16.83921 -1.0216,-21.02022 4.67316,-2.21756 60.7361,-2.35014 65.9873,-0.15605 9.15086,3.82348 8.45551,17.2068 -1.10148,21.19996 -4.65754,1.94604 -59.4479,1.92571 -63.86422,-0.0237 z m 461.78641,0.70155 c -8.06837,-1.56221 -11.21048,-12.99489 -5.36844,-19.53326 3.74062,-4.18648 66.58501,-5.30505 71.11506,-1.26578 7.51903,6.70443 4.52986,18.93742 -5.09793,20.86298 -3.46187,0.69237 -57.03424,0.63589 -60.64869,-0.0639 z m -407.78641,-110.1596 c -4.7627,-2.9419 -6.7037,-5.73995 -7.17897,-10.34886 -1.47743,-14.32729 17.9468,-20.34137 24.91241,-7.71331 6.20987,11.25796 -6.98744,24.69992 -17.73344,18.06217 z m 416.56166,0.0333 c -9.10462,-4.88286 -9.1499,-18.56048 -0.0773,-23.33792 9.50079,-5.00291 20.92793,2.23389 19.66415,12.45329 -1.23976,10.02517 -11.03736,15.4698 -19.58689,10.88463 z M 49.71871,384.36215 c -3.86007,-3.86007 -5.50366,-62.63129 -1.94405,-69.51481 3.84149,-7.42863 15.45082,-7.59163 19.77132,-0.2776 1.4745,2.49613 2.42766,35.10305 1.84285,63.04241 -0.11274,5.38639 -5.54285,10.15 -11.57012,10.15 -4.01176,0 -5.19787,-0.49787 -8.1,-3.4 z M -70.17225,373.20418 c -4.94335,-1.69945 -7.31044,-4.04713 -8.67596,-8.60483 -4.05588,-13.53731 13.53932,-23.50237 22.56285,-12.77851 8.7857,10.44122 -1.16149,25.75812 -13.88689,21.38334 z m 244.10584,-1.53033 c -8.7373,-6.87275 -6.4558,-20.92882 3.85934,-23.77697 14.41796,-3.98099 23.89375,15.30948 11.59238,23.59937 -4.47246,3.01399 -11.73965,3.09752 -15.45172,0.1776 z"
         id="path5760"
         inkscape:connector-curvature="0" />
      <path
         style="fill:#4d4d4d"
         d="M 27.81871,890.24831 C -155.80277,872.38032 -286.23627,684.65673 -240.71836,503.76215 -180.84846,265.83073 115.66296,184.23667 287.52356,358.40044 495.35655,569.0187 324.40523,919.1088 27.81871,890.24831 Z m 77,-33.89892 C 323.03499,821.43111 419.73791,567.13375 278.89858,398.57574 148.78852,242.85865 -101.10754,274.52508 -188.61065,457.81776 -272.5628,633.67227 -154.6056,840.84285 39.31871,858.1346 c 10.99861,0.98072 55.85499,-0.24184 65.5,-1.78521 z m -50.0551,-8.72946 c -7.85023,-2.09151 -7.91117,-2.36835 -8.23517,-37.40873 -0.31991,-34.59876 -0.12926,-35.88794 5.75754,-38.93212 5.97506,-3.08983 12.62711,-0.99883 15.39789,4.84015 2.28617,4.81775 2.4588,61.14887 0.20078,65.51541 -2.65846,5.14089 -7.68474,7.43367 -13.12104,5.98529 z m -124.9449,-38.81181 c -5.40612,-2.23612 -9.04804,-9.64825 -7.46048,-15.18376 3.33372,-11.62401 19.19907,-13.30858 24.29052,-2.57914 5.19156,10.94042 -5.65296,22.38605 -16.83004,17.7629 z m 246.47251,-0.75008 c -14.07212,-9.69883 -2.81567,-30.00967 12.58216,-22.70292 4.96283,2.35502 8.10742,9.25382 6.56485,14.40243 -2.50126,8.34848 -12.67698,12.75979 -19.14701,8.30049 z M -71.28129,731.36215 c -7.71802,-7.71802 -6.97681,-8.97047 22.33642,-37.74302 41.52555,-40.75962 72.52049,-71.14819 93.46208,-91.63365 11.38418,-11.13621 20.95638,-20.66492 21.27157,-21.1749 0.46768,-0.75672 -18.48176,-56.72614 -58.1791,-171.8389 -6.22967,-18.06454 -3.98296,-25.19385 7.94325,-25.20579 8.27889,-0.008 6.47329,-4.28815 42.80027,101.4508 34.78924,101.26296 34.50795,100.28092 30.25695,105.63443 -4.2521,5.35489 -144.82759,142.21276 -146.92074,143.03532 -4.77198,1.87527 -9.48917,0.95724 -12.9707,-2.52429 z m -76.7807,-17.59811 c -9.53747,-2.97587 -12.18338,-15.76283 -4.584,-22.15331 5.66967,-4.76776 12.01116,-4.57017 17.39516,0.54199 9.83318,9.3367 0.15798,25.65794 -12.81116,21.61132 z m 416.38121,-0.0928 c -13.4448,-5.53617 -9.99111,-25.24241 4.42396,-25.24241 16.27615,0 17.69847,23.22657 1.57553,25.7285 -1.925,0.29872 -4.62477,0.08 -5.99949,-0.48609 z M -206.86462,576.04438 c -7.64767,-4.74409 -6.63576,-16.37074 1.72899,-19.86576 4.96767,-2.07562 58.98821,-2.0559 63.96456,0.0233 8.81216,3.68196 9.73249,15.79771 1.52251,20.04325 -4.57591,2.3663 -63.36088,2.19065 -67.21606,-0.20084 z m 458.58333,-1.68223 c -3.81203,-3.81203 -4.51201,-8.54893 -1.98531,-13.43502 2.82642,-5.4657 4.14857,-5.66498 37.58531,-5.66498 36.90283,0 39,0.64799 39,12.05034 0,10.98565 -64.56285,17.08681 -74.6,7.04966 z m -399.9,-105.30845 c -6.84936,-1.69625 -11.43681,-9.53829 -9.50996,-16.25683 3.65415,-12.74127 21.36577,-12.74127 25.01992,0 2.60381,9.07898 -6.39734,18.51357 -15.50996,16.25683 z m 415.83291,-0.37866 c -7.11774,-2.08359 -10.98504,-10.91648 -7.68604,-17.55487 6.40307,-12.88453 24.81666,-9.06631 24.60248,5.10154 -0.13664,9.03834 -8.22973,14.99621 -16.91644,12.45333 z M 51.73902,385.87668 c -5.3217,-3.24517 -5.53109,-4.80798 -5.21203,-38.90096 0.32479,-34.70401 0.34437,-34.7909 8.35822,-37.08924 12.34905,-3.54167 14.4335,1.96387 14.4335,38.12242 0,38.5213 -3.64221,46.36685 -17.57969,37.86778 z M -72.39375,372.13266 c -4.82035,-2.37675 -7.9181,-9.32252 -6.40706,-14.36591 3.73923,-12.48044 20.11002,-13.45173 24.68789,-1.46475 4.30588,11.27479 -7.24097,21.27403 -18.28083,15.83066 z m 247.21246,-0.29755 c -8.27802,-5.61472 -8.29112,-16.94876 -0.0255,-22.0572 12.74222,-7.87512 26.33638,8.58165 16.21347,19.62766 -4.25228,4.64005 -11.35688,5.70633 -16.18797,2.42954 z"
         id="path5758"
         inkscape:connector-curvature="0" />
      <path
         style="fill:#4d4d4d"
         d="M 29.31871,890.25601 C -201.50066,866.78123 -325.91076,600.60992 -197.1367,405.76215 c 117.31979,-177.51632 378.17145,-188.30231 507.87065,-21 170.66186,220.14107 -3.90991,533.7167 -281.41524,505.49386 z M 90.27047,858.23463 C 327.22764,834.47159 430.28598,548.55452 262.40616,380.6747 103.83166,222.1002 -166.98097,304.30882 -211.11936,524.4194 -247.73164,706.9985 -94.45991,876.76015 90.27047,858.23463 Z M 52.22312,846.09761 c -5.31637,-3.30035 -5.38075,-3.69216 -5.72448,-34.83546 -0.34314,-31.09061 0.0423,-34.48128 4.38382,-38.55989 5.7185,-5.37225 15.10987,-2.1566 17.52314,6 1.92743,6.51454 0.77971,61.02041 -1.35091,64.15576 -3.28097,4.82816 -9.93234,6.28099 -14.83157,3.23959 z M -70.4116,808.32723 c -9.59325,-4.31201 -9.4649,-18.39738 0.20947,-22.98817 13.77982,-6.53895 24.88352,13.58709 12.11268,21.95487 -3.45819,2.26589 -8.61739,2.69853 -12.32215,1.0333 z m 248,-0.0477 c -1.77666,-0.77236 -4.13748,-2.89225 -5.24626,-4.71086 -8.46593,-13.88575 11.63038,-27.34739 20.71067,-13.87315 7.12691,10.57562 -3.76825,23.66865 -15.46441,18.58401 z M -68.91872,733.19676 c -3.00289,-1.62935 -5.76257,-6.14756 -5.76257,-9.43461 0,-5.09832 -2.94459,-2.09411 107.25,-109.42145 18.5625,-18.0795 33.75,-33.48129 33.75,-34.22619 0,-0.7449 -13.95,-41.94034 -31,-91.54542 -19.01316,-55.31666 -31,-91.63381 -31,-93.92227 0,-10.78612 15.47586,-14.72454 20.32473,-5.1724 1.53093,3.01588 65.16902,187.98709 66.24799,192.55714 1.21362,5.1404 -1.68036,8.52112 -35.41697,41.37391 -18.51066,18.02572 -50.9072,49.66764 -71.9923,70.31536 -44.22908,43.31162 -44.69074,43.65941 -52.40088,39.47593 z m -82.19514,-21.38095 c -10.10696,-6.66256 -5.4347,-23.06517 6.56492,-23.04707 10.12257,0.0153 16.04664,9.94523 11.35072,19.02614 -2.97881,5.76039 -12.15332,7.81948 -17.91564,4.02093 z m 417.19514,0.38095 c -7.75964,-4.21034 -7.59508,-17.14876 0.27726,-21.79907 10.68981,-6.31462 23.63494,6.31245 17.60731,17.1747 -3.12056,5.62349 -11.87254,7.88646 -17.88457,4.62437 z M -206.36747,575.83469 c -6.51821,-4.02102 -7.34682,-11.23954 -1.91382,-16.67254 5.03901,-5.03901 65.92487,-5.40474 70.57764,-0.42394 4.77681,5.11359 4.39751,11.75877 -0.94315,16.52394 -3.47586,3.10131 -62.80829,3.60293 -67.72067,0.57254 z m 459.99065,-0.0285 c -6.36174,-3.879 -6.63944,-13.27565 -0.53425,-18.07798 3.44529,-2.71007 64.20554,-3.07224 68.01299,-0.40541 7.15738,5.01323 6.41088,15.78895 -1.31751,19.01808 -5.94958,2.48589 -61.94957,2.03332 -66.16123,-0.53469 z M -153.79894,464.8798 c -10.73388,-10.73388 2.88298,-27.52161 15.55022,-19.17131 10.30948,6.79605 5.42057,23.05366 -6.93257,23.05366 -4.16726,0 -5.20101,-0.46572 -8.61765,-3.88235 z m 418.68508,1.99648 c -10.49496,-7.13475 -5.67046,-23.11413 6.97862,-23.11413 15.88614,0 16.63907,23.33086 0.79685,24.69175 -3.68043,0.31616 -5.54682,-0.0625 -7.77547,-1.57762 z M 53.41511,386.54674 c -6.53106,-3.49049 -6.5964,-3.86396 -6.5964,-37.70653 0,-35.88263 0.8878,-39.07806 10.85724,-39.07806 10.30229,0 11.08758,2.50054 11.46283,36.5 0.41879,37.94529 -3.12283,47.01904 -15.72367,40.28459 z M -71.4116,372.32723 c -9.62982,-4.32845 -9.36603,-19.11992 0.41386,-23.20622 13.47323,-5.62947 24.03081,13.1109 12.293,21.82085 -3.44358,2.55528 -8.80389,3.13969 -12.70686,1.38537 z m 248.1455,0.0135 c -4.94487,-2.15299 -7.41519,-6.08857 -7.41519,-11.81344 0,-12.376 16.54994,-17.11263 22.97437,-6.57532 6.52639,10.70458 -4.17087,23.34724 -15.55918,18.38877 z"
         id="path5756"
         inkscape:connector-curvature="0" />
      <path
         style="fill:#4d4d4d"
         d="M 35.48866,890.68551 C -228.44168,865.20791 -343.954,544.92768 -156.73488,357.70856 31.00625,169.96743 351.46146,286.33289 376.2863,551.26215 394.35098,744.04742 228.41983,909.30945 35.48866,890.68551 Z M 90.64662,858.70114 C 281.74711,842.04343 400.35428,636.49624 319.83824,461.51019 228.25892,262.48024 -47.14485,240.37475 -169.138,422.26215 -300.65919,618.3555 -145.35176,879.27248 90.64662,858.70114 Z M 53.69701,846.34792 c -6.37674,-2.82167 -6.3783,-2.83068 -6.3783,-36.87402 0,-20.74633 0.36568,-31.55828 1.11704,-33.02749 3.80359,-7.43754 13.28737,-7.80885 18.17885,-0.71175 1.95236,2.83269 2.61256,60.50788 0.74874,65.41009 -1.86199,4.89743 -8.57839,7.45456 -13.66633,5.20317 z m -126.23482,-40.1185 c -11.4767,-9.657 0.40544,-26.92309 13.77133,-20.01132 2.99467,1.5486 6.08519,6.90367 6.08519,10.54405 0,9.85492 -12.38064,15.75781 -19.85652,9.46727 z m 248.61218,0.77794 c -1.50938,-0.93587 -3.42188,-3.1294 -4.25,-4.87452 -5.87926,-12.38962 9.11211,-23.24648 19.25903,-13.94753 10.71687,9.82129 -2.59719,26.51776 -15.00903,18.82205 z M -66.36838,733.58573 c -7.65074,-2.03605 -9.6871,-10.84491 -4.04063,-17.47897 2.95178,-3.46805 39.19462,-39.07798 110.72772,-108.79406 30.15541,-29.38943 27.58363,-25.80599 24.56154,-34.2232 -1.3482,-3.75504 -7.22195,-20.77735 -13.05279,-37.82735 -5.83084,-17.05 -13.02683,-37.975 -15.9911,-46.5 -2.96426,-8.525 -7.86207,-22.7 -10.88403,-31.5 -3.02195,-8.8 -8.90077,-25.83742 -13.06404,-37.86094 -9.99693,-28.87114 -9.46243,-34.55146 3.25734,-34.61682 7.57507,-0.0389 8.38032,1.43111 21.07705,38.47776 6.22041,18.15 15.03444,43.8 19.58673,57 37.59582,109.01433 36.16544,104.32347 33.19416,108.85822 -1.26212,1.92624 -60.20396,59.83808 -135.7594,133.38703 -11.0308,10.73786 -14.18885,12.52172 -19.61255,11.07833 z m -83.31291,-21.57513 c -13.69981,-6.84383 -3.87774,-27.8203 10.26056,-21.91294 9.77565,4.08453 9.93397,18.1783 0.24966,22.22467 -4.46684,1.86636 -6.25641,1.81328 -10.51022,-0.31173 z m 417.26969,0.31663 c -9.48159,-4.26183 -9.18717,-18.19465 0.46975,-22.22957 10.04506,-4.1971 20.12215,5.87999 15.92505,15.92505 -2.6243,6.28084 -10.07406,9.1456 -16.3948,6.30452 z M -203.18129,577.04891 c -9.19875,-2.21338 -10.84118,-15.47337 -2.45382,-19.81064 6.80422,-3.5186 64.58625,-1.57405 68.03705,2.28966 5.29424,5.92773 2.7461,15.077 -4.78121,17.16728 -3.74742,1.04062 -56.66776,1.34848 -60.80202,0.3537 z m 459.81291,-0.38924 c -9.49476,-2.74706 -9.9415,-16.42684 -0.65178,-19.95878 1.35799,-0.51631 15.46048,-0.93874 31.33887,-0.93874 15.87839,0 29.98088,0.42243 31.33887,0.93874 9.57901,3.64193 8.80743,17.26007 -1.13436,20.02124 -4.59944,1.27742 -56.44434,1.22424 -60.8916,-0.0625 z M -150.68129,467.06 c -9.01293,-4.62969 -8.75481,-17.58593 0.4377,-21.96953 9.8294,-4.68731 20.47494,5.76499 16.22679,15.93224 -2.73551,6.547 -10.32175,9.29538 -16.66449,6.03729 z m 417.26969,0.26723 c -1.77666,-0.79858 -4.13748,-2.93992 -5.24626,-4.75853 -7.46376,-12.24199 8.90705,-25.02991 19.05349,-14.88347 9.45306,9.45305 -1.57433,25.1405 -13.80723,19.642 z M 51.68575,384.98991 c -4.19308,-3.39652 -4.36704,-4.8799 -4.36704,-37.23894 0,-31.14267 0,-31.14267 2.87187,-34.01453 5.24032,-5.24032 13.75099,-4.2175 16.8555,2.02571 2.14983,4.32337 1.76746,62.83703 -0.43148,66.02749 -3.63035,5.26732 -10.54669,6.74996 -14.92885,3.20027 z M -73.47486,370.2824 c -6.41214,-5.39547 -6.68116,-13.14022 -0.64065,-18.44386 7.78317,-6.83371 20.43422,-1.30901 20.43422,8.92361 0,9.70872 -12.45194,15.69782 -19.79357,9.52025 z m 248.67505,0.97666 c -2.99245,-1.62621 -5.88148,-7.02644 -5.88148,-10.99375 0,-9.40109 12.58693,-15.08739 19.85652,-8.97043 11.51989,9.69334 -0.7143,27.17061 -13.97504,19.96418 z"
         id="path5754"
         inkscape:connector-curvature="0" />
      <path
         style="fill:#4d4d4d"
         d="M 37.81871,890.66266 C -222.21596,863.57155 -340.58909,561.64866 -166.98618,368.28667 -8.33905,191.5827 286.09255,254.16343 361.25592,480.56326 431.45053,691.9967 256.77566,913.47418 37.81871,890.66266 Z M 98.66206,858.2838 C 312.05527,832.94666 418.82591,582.55119 289.70209,410.26215 152.56129,227.27611 -133.85623,275.57807 -204.036,493.52703 c -54.12015,168.07449 63.80765,348.7429 238.35471,365.16554 6.325,0.5951 13.3,1.26164 15.5,1.48119 7.45896,0.74439 35.93724,-0.35756 48.84335,-1.88996 z M 51.08449,843.84538 c -8.58659,-7.66894 -4.83488,-70.17694 4.34952,-72.46847 11.45106,-2.85707 13.00342,1.95097 12.66232,39.21861 -0.33163,36.23482 -4.51497,44.41121 -17.01184,33.24986 z M -70.4832,807.08934 c -8.32463,-4.10261 -8.22774,-16.71258 0.15899,-20.69235 4.68576,-2.22354 7.72276,-2.05502 11.74504,0.65172 12.2498,8.24333 1.35953,26.57728 -11.90403,20.04063 z m 247.69518,0.1759 c -5.80766,-3.15663 -7.66705,-11.08204 -4.0078,-17.08278 5.83143,-9.56287 21.11453,-5.06026 21.11453,6.22063 0,9.49238 -9.05205,15.2401 -17.10673,10.86215 z m -245.7832,-74.8986 c -4.72033,-2.61627 -6.31561,-8.40536 -3.69374,-13.40415 0.77898,-1.48519 15.74148,-16.62773 33.25,-33.65009 C 36.8702,611.53433 67.31871,581.47003 67.31871,580.32049 c 0,-0.67605 -11.05632,-33.36574 -24.56961,-72.64376 C 2.05393,389.3912 3.99731,395.46689 5.61751,391.59083 c 4.27511,-10.22753 17.17759,-8.20194 20.49947,3.21824 0.55243,1.8992 5.58497,16.72808 11.18341,32.95308 5.59844,16.225 15.72603,45.7 22.50577,65.5 6.77973,19.8 16.41858,47.88351 21.41967,62.4078 10.00027,29.04308 10.07454,29.41175 6.84288,33.9702 -2.42108,3.41508 -133.27754,131.48117 -142.40871,139.372 -5.89529,5.0945 -9.5413,5.95391 -14.23122,3.35449 z m -78.77716,-19.77572 c -12.83114,-3.41526 -10.13786,-22.82877 3.16709,-22.82877 10.95292,0 16.49502,17.54252 6.78699,21.48297 -4.37376,1.77529 -7.0043,2.13094 -9.95408,1.3458 z m 417.16709,-0.005 c -13.16122,-3.71844 -10.64997,-22.82416 3,-22.82416 4.01176,0 5.19787,0.49787 8.1,3.4 8.35601,8.35601 0.20573,22.61837 -11.1,19.42416 z M -205.90615,575.20335 c -9.34583,-5.0718 -5.207,-17.49765 6.30472,-18.92844 10.6346,-1.32178 57.18461,-0.16879 59.67043,1.47797 5.89367,3.90432 6.17019,12.56686 0.54246,16.99363 -3.40627,2.67937 -61.68459,3.07962 -66.51761,0.45684 z m 460.00876,-0.17886 c -5.83819,-3.62066 -6.0839,-12.49139 -0.46165,-16.66651 2.97483,-2.20913 57.78777,-3.32211 64.95877,-1.31899 6.75295,1.88634 8.61213,11.03001 3.31898,16.32316 -4.04484,4.04484 -61.69572,5.458 -67.8161,1.66234 z m -407.3839,-110.66234 c -8.41437,-8.41437 -2.08861,-20.35066 10.45,-19.71848 13.38267,0.67473 11.10125,23.11848 -2.35,23.11848 -4.01176,0 -5.19787,-0.49787 -8.1,-3.4 z m 417.59693,0.65 c -3.99238,-3.61793 -5.1328,-7.81391 -3.45229,-12.70217 4.30025,-12.5086 22.45536,-9.21968 22.45536,4.06795 0,9.93203 -11.70315,15.24947 -19.00307,8.63422 z M 53.57503,385.77989 c -7.59137,-3.20959 -9.74717,-65.61986 -2.49054,-72.10097 12.36865,-11.04683 16.67063,-2.91175 17.05429,32.24979 0.41751,38.26398 -2.0899,45.12506 -14.56375,39.85118 z m -124.94161,-14.4814 c -8.28765,-3.60454 -8.42318,-16.84329 -0.21587,-21.08745 8.11359,-4.1957 16.90116,1.29023 16.90116,10.55111 0,9.29894 -7.96539,14.32888 -16.68529,10.53634 z m 246.58317,-0.8229 c -4.51143,-3.0359 -6.31775,-8.28319 -4.62207,-13.42688 4.11629,-12.48633 22.54758,-9.63244 22.68875,3.5131 0.10455,9.73535 -10.05082,15.30794 -18.06668,9.91378 z"
         id="path5752"
         inkscape:connector-curvature="0" />
      <path
         style="fill:#4d4d4d"
         d="m 44.81871,891.17077 c -1.65,-0.2312 -10.2,-1.35056 -19,-2.48744 -344.19668,-44.46743 -368.26924,-537.79084 -30,-614.79535 332.69095,-75.73465 526.10742,371.86448 243.49553,563.49071 -55.00659,37.29745 -141.49753,61.21846 -194.49553,53.79208 z m 57.5,-32.78755 C 333.53674,825.78389 428.01169,543.87202 262.89138,379.23668 104.3714,221.18227 -166.44963,302.7389 -212.04613,522.26215 c -33.11932,159.45214 81.81986,319.32854 241.86484,336.42559 5.5,0.58755 11.575,1.25362 13.5,1.48017 7.46229,0.87821 49.03131,-0.37921 59,-1.78469 z M 53.09385,845.20335 c -4.63698,-2.5164 -4.77514,-3.56667 -4.77514,-36.29873 0,-35.87027 0.32539,-37.14247 9.5,-37.14247 9.17461,0 9.5,1.2722 9.5,37.14247 0,32.97755 -0.11714,33.8325 -4.97998,36.34718 -3.60873,1.86614 -5.7374,1.85499 -9.24488,-0.0485 z M -68.36838,807.65967 c -8.81505,-2.55041 -10.71089,-15.00322 -3.09612,-20.33682 9.86056,-6.9066 23.01901,6.51334 15.61531,15.92562 -1.73837,2.20998 -7.77876,5.82988 -9.04998,5.42349 -0.15517,-0.0496 -1.71631,-0.50513 -3.46921,-1.01229 z m 247.18709,-0.32429 c -11.66813,-5.0561 -8.60561,-21.57323 4,-21.57323 11.08095,0 15.53362,13.73847 6.5,20.05537 -3.5866,2.50798 -7.05726,3.00969 -10.5,1.51786 z M -67.46872,732.25554 c -4.64385,-2.01766 -6.77019,-7.22305 -4.83877,-11.84558 0.90672,-2.17009 25.33156,-26.67563 69.26342,-69.49227 37.32453,-36.37703 68.63844,-67.15605 69.58646,-68.3978 1.67788,-2.19776 0.88751,-4.68755 -29.75,-93.71656 C 19.48187,438.50098 5.31871,396.12301 5.31871,394.63006 c 0,-6.99949 9.72081,-11.55347 15.70888,-7.35927 2.7206,1.90559 0.77014,-3.47078 35.7312,98.49136 16.31265,47.575 30.31199,88.19661 31.10964,90.27024 1.67291,4.34899 1.88594,10.0472 0.47425,12.68498 -0.53682,1.00306 -26.52432,26.71073 -57.75,57.12817 -31.22569,30.41744 -63.64099,62.07968 -72.03401,70.36052 -17.9972,17.75667 -19.69232,18.80194 -26.02739,16.04948 z m -82.45,-21.05878 c -5.34928,-2.90249 -7.23844,-10.12758 -4.05651,-15.51416 7.48571,-12.67229 26.54008,-1.96604 19.77701,11.11228 -2.8012,5.41694 -10.0889,7.45756 -15.7205,4.40188 z m 417,0 c -1.50559,-0.81692 -3.41809,-2.80156 -4.25,-4.4103 -6.75945,-13.07134 12.29949,-23.76968 19.78137,-11.10386 5.8755,9.94644 -5.27151,21.0811 -15.53137,15.51416 z M -203.39716,576.0878 c -8.27097,-1.70134 -9.37919,-14.97256 -1.52207,-18.22709 6.85697,-2.84025 64.11207,-0.94916 66.82572,2.2072 3.79147,4.41003 2.86332,11.58076 -1.90894,14.74814 -2.13094,1.41431 -57.3194,2.52143 -63.39471,1.27175 z m 459.04461,-0.78341 c -6.29466,-2.73814 -7.53289,-11.50978 -2.25201,-15.95335 14.50313,-12.20358 77.0739,-0.94997 69.84278,12.56151 -2.61247,4.88145 -57.79978,7.65085 -67.59077,3.39184 z M -151.11386,465.81581 c -7.46305,-4.91968 -7.2448,-15.58354 0.39984,-19.53673 10.34113,-5.34761 21.17837,5.65647 15.32667,15.56262 -3.26743,5.53132 -10.56629,7.37575 -15.72651,3.97411 z m 417.19514,0.43511 c -7.53499,-4.23752 -7.4141,-16.03201 0.2047,-19.97184 11.76991,-6.08646 22.66501,8.75476 13.13186,17.8881 -3.52513,3.37729 -9.40332,4.29571 -13.33656,2.08374 z M 50.9076,382.68542 c -3.94502,-4.68838 -4.09801,-64.50506 -0.17501,-68.42806 3.15301,-3.15301 6.89907,-4.02243 10.64536,-2.47067 5.93899,2.46001 5.94076,2.47094 5.94076,36.62124 0,36.10674 -0.31726,37.35422 -9.5,37.35422 -3.59878,0 -4.75553,-0.51497 -6.91111,-3.07673 z M -72.91107,369.79604 c -7.64643,-6.01467 -5.28492,-17.30511 4.18777,-20.02184 10.75306,-3.08394 18.6563,11.58239 10.27623,19.06998 -4.04271,3.61216 -10.53852,4.03965 -14.464,0.95186 z m 246.62978,-1.43389 c -5.94867,-5.94867 -3.92637,-14.81082 4.14979,-18.18525 8.50665,-3.55431 17.41139,5.11279 14.45537,14.06961 -2.6909,8.15351 -12.416,10.3048 -18.60516,4.11564 z"
         id="path5750"
         inkscape:connector-curvature="0" />
      <path
         style="fill:#4d4d4d"
         d="m 44.31871,890.79863 c -61.48157,-6.6435 -106.27556,-21.88882 -151.5,-51.56197 -73.53117,-48.24606 -125.33287,-129.36417 -136.96258,-214.47451 -0.86426,-6.325 -2.11175,-14.2 -2.7722,-17.5 -1.58252,-7.90724 -1.58941,-47.90067 -0.01,-56.5 0.65672,-3.575 1.90487,-11.675 2.77368,-18 18.28218,-133.09639 129.37444,-244.18865 262.47083,-262.47083 6.325,-0.86881 14.425,-2.11696 18,-2.77368 8.59933,-1.57968 48.59276,-1.57279 56.5,0.01 3.3,0.66045 11.175,1.90794 17.5,2.7722 132.9822,18.17105 244.18989,129.37525 262.47083,262.46258 0.86881,6.325 2.122,14.425 2.78487,18 1.59841,8.62059 1.59073,48.56387 -0.0109,56.5 -0.66597,3.3 -1.91799,11.175 -2.78225,17.5 -18.16944,132.97061 -129.52162,244.3218 -262.46255,262.46024 -6.325,0.86299 -13.975,2.02763 -17,2.5881 -7.32047,1.35633 -39.57338,2.00675 -49,0.98814 z m 36,-30.06449 C 315.0519,844.41234 429.77946,575.15145 278.69636,395.14991 159.34735,252.9566 -67.66778,266.8808 -171.06425,422.73643 c -119.73736,180.48721 0.45984,422.63062 217.38296,437.92907 16.66018,1.17495 18.04911,1.17776 34,0.0686 z M 51.24179,842.83907 c -3.27871,-3.2787 -4.69109,-60.02461 -1.64388,-66.04669 3.13369,-6.19297 12.15888,-6.60798 15.78783,-0.72597 3.6243,5.87449 2.43822,64.00698 -1.37279,67.28349 -4.01301,3.45017 -9.01004,3.2503 -12.77116,-0.51083 z M -72.28129,804.36215 c -9.31943,-9.31943 1.98106,-23.54316 13.24691,-16.67366 9.26854,5.65163 4.60516,20.05753 -6.49691,20.06992 -2.47942,0.003 -4.23357,-0.87983 -6.75,-3.39626 z m 249.84138,2.07477 c -7.41574,-4.11846 -7.21976,-16.08544 0.3197,-19.52064 7.79154,-3.55007 15.39445,1.31254 15.39445,9.84587 0,8.6003 -8.36998,13.75347 -15.71415,9.67477 z M -70.0924,729.68542 c -5.02557,-5.97254 -3.35474,-10.00616 9.06472,-21.88355 34.19575,-32.70322 129.34639,-126.40322 129.34639,-127.37441 0,-1.03135 -17.94137,-53.63973 -48.65405,-142.66531 C 4.89103,394.93842 5.14607,395.81529 6.37833,392.08151 c 2.57028,-7.78804 13.05373,-8.58163 16.9594,-1.28382 1.91896,3.5856 65.98098,191.02501 65.98098,193.05409 0,3.34845 -2.55068,7.22027 -8.16268,12.39059 -2.93553,2.7045 -32.78732,31.73709 -66.33732,64.51687 -83.83178,81.90723 -77.98313,77.15962 -84.91111,68.92618 z m -78.21059,-18.3375 c -4.32411,-1.91339 -6.3783,-5.25804 -6.3783,-10.3852 0,-12.08781 17.15416,-14.35358 20.97686,-2.77069 2.78602,8.44173 -6.44744,16.76272 -14.59856,13.15589 z m 417.1217,0.0117 c -11.45755,-5.05749 -8.2138,-20.59749 4.29943,-20.59749 11.62734,0 14.4379,16.0781 3.602,20.60563 -3.99826,1.67058 -4.09857,1.67048 -7.90143,-0.008 z M -207.03527,573.3099 c -3.72148,-3.44895 -3.75372,-10.15849 -0.0655,-13.62344 4.02266,-3.77908 63.7705,-3.82203 67.787,-0.0487 4.65328,4.37153 3.96671,12.2696 -1.31217,15.09478 -4.72255,2.52743 -63.50595,1.26818 -66.40937,-1.42261 z m 460.27706,-0.47083 c -3.12332,-3.12331 -3.84062,-7.49397 -1.84259,-11.22732 3.83041,-7.15718 66.68814,-7.43023 71.35353,-0.30996 7.71962,11.78164 1.15561,14.46036 -35.43402,14.46036 -31.15385,0 -31.15385,0 -34.07692,-2.92308 z M -151.97404,464.74651 c -8.03139,-6.31749 -3.36929,-19.38436 6.9161,-19.38436 9.70577,0 14.23491,12.68306 6.83851,19.15 -3.38217,2.95715 -10.14662,3.07241 -13.75461,0.23436 z m 417,0 c -9.32574,-7.33562 -1.32764,-22.65442 9.89442,-18.95081 11.61606,3.83365 9.25458,20.96645 -2.88989,20.96645 -2.93935,0 -5.30892,-0.68187 -7.00453,-2.01564 z M 51.62447,383.34987 c -4.56487,-3.92468 -4.93605,-64.11128 -0.42321,-68.62412 3.80271,-3.80271 8.78073,-4.01695 12.81169,-0.55138 3.49916,3.00837 5.04742,60.31909 1.79923,66.60041 -2.7548,5.32719 -9.55179,6.56086 -14.18771,2.57509 z m -122.80576,-12.7484 c -9.66231,-5.31363 -5.95471,-20.84907 4.97251,-20.83558 7.50798,0.009 12.47771,6.97098 10.38552,14.54828 -1.64663,5.9636 -9.8442,9.31953 -15.35803,6.2873 z m 246.85309,-0.76566 c -9.00263,-5.48948 -4.65328,-20.05594 5.99262,-20.06992 6.0022,-0.008 10.65429,4.79352 10.65429,10.99626 0,9.03587 -8.82248,13.8447 -16.64691,9.07366 z"
         id="path5748"
         inkscape:connector-curvature="0" />
      <path
         style="fill:#4d4d4d"
         d="M 47.81871,890.77358 C -63.95128,879.78565 -149.66817,827.65606 -203.55336,737.8991 c -22.28588,-37.12175 -42.02488,-97.19873 -42.11734,-128.18695 -0.006,-1.9525 -0.52624,-4.06565 -1.15648,-4.69589 -1.58653,-1.58653 -1.6642,-44.98537 -0.0926,-51.75411 0.63851,-2.75 1.87713,-10.625 2.7525,-17.5 13.47447,-105.82592 86.54036,-201.34397 186.48601,-243.79063 27.44179,-11.65446 72.61122,-23.14546 91.19098,-23.19878 2.03004,-0.006 3.92975,-0.39692 4.22158,-0.86911 1.16332,-1.88229 51.15971,-1.96921 53.03672,-0.0922 0.5229,0.5229 2.4703,0.95072 4.32756,0.95072 43.82185,0 114.05223,28.3188 162.22316,65.4128 63.27275,48.72313 117,146.97115 117,213.95134 0,1.93481 0.38633,3.75659 0.85852,4.04842 1.86583,1.15315 2.08078,42.99171 0.2676,52.08744 -0.5482,2.75 -1.93441,11.85096 -3.08048,20.22436 -18.28338,133.58227 -128.85032,244.14426 -262.32128,262.30955 -8.3734,1.13961 -17.24936,2.49003 -19.72436,3.00093 -6.32444,1.30551 -32.93439,1.91697 -42.5,0.97659 z m 43.6099,-30.54076 c 236.83678,-23.53474 340.90315,-311.643 173.40644,-480.0766 -150.93733,-151.7816 -407.07606,-88.90221 -470.91993,115.60593 -59.5918,190.88769 98.26433,384.27028 297.51349,364.47067 z M 53.10498,844.2586 c -5.99901,-3.36525 -7.35564,-63.38634 -1.56354,-69.17523 12.15444,-12.14771 20.9536,23.17626 15.2911,61.38568 -1.14063,7.69672 -7.48028,11.29408 -13.72756,7.78955 z M -69.18168,806.41522 c -3.94787,-1.77186 -5.47665,-3.73671 -6.15372,-7.90905 -1.68628,-10.39129 11.42953,-16.55337 18.17369,-8.53838 7.0697,8.40186 -2.07276,20.91187 -12.01997,16.44743 z m 246.81421,-0.6033 c -11.11219,-6.77558 -2.99444,-23.7036 8.96973,-18.70465 8.76511,3.66229 9.17445,14.78108 0.70541,19.16059 -3.82061,1.97571 -5.84349,1.88039 -9.67514,-0.45594 z M -67.68129,731.46814 c -3.31685,-1.67769 -5.31178,-6.00997 -4.49012,-9.75096 0.59323,-2.70099 41.39393,-43.23438 128.24012,-127.39995 15.12532,-14.65846 17.63433,-0.42572 -18.75,-106.36192 -17.05,-49.64257 -31,-91.56927 -31,-93.17043 0,-7.7013 10.85751,-11.77296 15.34963,-5.75626 3.37611,4.52193 67.84761,193.55902 67.12922,196.82981 -0.42246,1.92346 -11.86336,13.75153 -37.80174,39.08099 -120.35624,117.53079 -109.97201,107.72904 -114.17711,107.77255 -1.1,0.0114 -3.125,-0.54834 -4.5,-1.24383 z m -81.88993,-21.1015 c -11.36491,-6.29908 -1.3689,-24.40674 10.20567,-18.48745 5.09118,2.60365 7.35964,9.88397 4.65462,14.93835 -2.31583,4.32715 -10.1016,6.18664 -14.86029,3.5491 z m 416.66507,-0.16329 c -3.49495,-1.89664 -4.78064,-4.36514 -4.7529,-9.12546 0.0554,-9.50596 10.77145,-13.72205 17.57776,-6.91574 8.95614,8.95614 -1.58498,22.14086 -12.82486,16.0412 z M -204.32429,574.77057 c -5.62431,-2.26969 -7.08846,-10.00423 -2.72064,-14.37206 4.01584,-4.01584 63.9147,-4.17621 67.90909,-0.18181 4.23667,4.23666 3.10421,11.54125 -2.22971,14.38211 -2.6074,1.38871 -59.55812,1.54408 -62.95874,0.17176 z m 458.98843,-0.93943 c -5.28901,-3.22502 -5.38674,-10.82537 -0.18604,-14.46808 3.9082,-2.73741 62.59004,-2.37245 66.12897,0.41128 4.99057,3.92558 4.3577,11.56812 -1.19574,14.43991 -5.01641,2.59409 -60.40207,2.26637 -64.74719,-0.38311 z M -150.8553,465.05003 c -6.48891,-4.02558 -6.44146,-14.36689 0.0814,-17.73998 9.76125,-5.04774 19.5036,3.8717 15.00741,13.73978 -2.36055,5.18083 -9.94472,7.19148 -15.08879,4.0002 z m 416.87794,0.11601 c -5.06902,-2.74844 -6.39709,-11.34371 -2.45393,-15.88189 4.43089,-5.09951 14.3122,-4.20308 17.29716,1.56919 5.04817,9.7621 -5.13184,19.57825 -14.84323,14.3127 z M 54.81871,384.83833 c -5.90749,-2.4815 -5.97257,-2.83083 -6.32051,-33.92937 -0.40053,-35.79933 0.48162,-39.14681 10.3163,-39.14681 7.7622,0 8.74328,4.80107 8.32285,40.72897 -0.36654,31.32199 -2.35142,36.53403 -12.31864,32.34721 z m -125.1217,-14.5131 c -9.13145,-3.97422 -8.3708,-16.43027 1.19615,-19.58765 12.55805,-4.14453 19.05024,14.523 6.82698,19.6302 -4.00668,1.6741 -4.07973,1.67371 -8.02313,-0.0426 z m 248.90583,0.75379 c -1.21872,-0.24586 -3.35622,-1.80227 -4.75,-3.45867 -7.78722,-9.25459 3.48899,-22.40925 13.43364,-15.67148 10.00814,6.78078 3.30465,21.54867 -8.68364,19.13015 z"
         id="path5746"
         inkscape:connector-curvature="0" />
      <path
         style="fill:#4d4d4d"
         d="M 51.31871,890.71557 C -1.92882,885.63696 -37.9583,875.88916 -77.01672,855.99433 -166.70106,810.31264 -229.98315,722.00897 -243.59821,623.54695 c -5.70553,-41.26151 -5.77141,-44.36158 -1.65316,-77.7848 8.54999,-69.39054 33.80427,-125.48362 79.35393,-176.2555 45.13914,-50.31429 112.18012,-87.15248 177.71615,-97.65283 43.51848,-6.97264 61.48152,-6.97264 105,0 127.10833,20.36562 234.04272,127.3 254.40833,254.40833 6.98069,43.56877 7.04615,55.68039 0.54534,100.90149 -10.9867,76.42588 -55.69325,151.20284 -119.05774,199.13805 -46.59819,35.25151 -94.43948,54.36126 -155.39593,62.07142 -27.20146,3.44062 -31.95062,3.68246 -46,2.34246 z m 52,-31.42846 C 312.39994,830.03993 417.14478,588.96547 295.92342,415.9996 189.96509,264.81194 -33.46263,254.70405 -151.41116,395.76215 c -148.78816,177.94012 -39.73191,440.58724 193.22987,465.36784 8.90499,0.94724 50.45473,-0.29782 61.5,-1.84288 z m -48.643,-14.49501 c -5.21581,-2.15725 -5.357,-3.11392 -5.357,-36.29791 0,-34.94376 0.18752,-35.73204 8.5,-35.73204 8.31792,0 8.5,0.76898 8.5,35.89878 0,35.93241 -1.42579,40.357 -11.643,36.13117 z m -126.6572,-40.60288 c -7.07464,-7.07464 -2.38603,-17.42707 7.89271,-17.42707 5.9506,0 10.52437,6.41387 8.97523,12.58612 -1.83528,7.31236 -11.59545,10.11344 -16.86794,4.84095 z m 248.59923,1.06983 c -7.53555,-5.27811 -3.62419,-18.4969 5.47314,-18.4969 7.84919,0 12.62213,6.24521 10.25486,13.41809 -1.98647,6.01906 -10.47306,8.75951 -15.728,5.07881 z m -242.29903,-73.228 c -9.57026,-3.33977 -8.39731,-10.30022 3.75,-22.25302 5.3625,-5.27664 37.0875,-36.27021 70.5,-68.87461 33.4125,-32.6044 60.75,-59.61882 60.75,-60.03203 0,-0.41322 -14.175,-42.00545 -31.5,-92.42718 -17.325,-50.42173 -31.5,-92.82272 -31.5,-94.22442 0,-6.50719 10.17632,-10.09736 14.76102,-5.20764 2.68575,2.86443 67.23898,190.43832 67.23898,195.37795 0,3.90703 1.66825,2.09102 -32.50415,35.38318 -11.00228,10.71888 -38.67728,37.72939 -61.5,60.02335 -57.1509,55.82684 -55.01939,53.97108 -59.99585,52.23442 z m -82.5,-21.16769 c -6.52829,-2.82397 -8.3402,-12.26143 -3.20254,-16.68065 7.07442,-6.08516 16.17695,-2.75802 17.39993,6.35998 0.94578,7.05128 -7.52322,13.20775 -14.19739,10.32067 z m 416.88812,-0.0347 c -9.1792,-3.91121 -7.59328,-17.22002 2.34935,-19.71546 3.49624,-0.8775 9.31447,2.2601 11.09651,5.98402 3.85059,8.04655 -5.16931,17.25803 -13.44586,13.73144 z M -203.65522,574.45571 c -6.31056,-2.16816 -7.85434,-9.01914 -3.10299,-13.77048 11.84916,-11.84917 77.20017,-1.53795 68.54744,10.81555 -2.94402,4.20317 -54.97377,6.5524 -65.44445,2.95493 z m 461.97393,0.61626 c -8.92983,-1.73291 -9.52442,-14.63694 -0.77544,-16.82908 7.87088,-1.97213 61.97466,0.0442 63.86498,2.38004 2.83639,3.50497 2.52396,9.21388 -0.66848,12.21491 -2.50151,2.35153 -52.57988,4.14391 -62.42106,2.23413 z M -150.45622,464.75795 c -9.0214,-5.50035 -5.20091,-18.4958 5.43752,-18.4958 10.49274,0 14.09181,13.02102 5.11234,18.4958 -1.80121,1.0982 -4.17493,1.99672 -5.27493,1.99672 -1.1,0 -3.47372,-0.89852 -5.27493,-1.99672 z m 418.27493,1.05884 c -8.35936,-3.42141 -8.33522,-16.30377 0.0357,-19.06643 4.23977,-1.39925 8.12938,-0.61922 11.19897,2.24585 7.87003,7.34568 -1.20124,20.9272 -11.23469,16.82058 z M 51.77326,382.3076 c -2.45455,-2.45454 -2.45455,-2.45454 -2.45455,-33.44423 0,-35.50618 0.23171,-36.50122 8.5,-36.50122 8.26829,0 8.5,0.99504 8.5,36.50122 0,35.1298 -0.18208,35.89878 -8.5,35.89878 -2.47924,0 -4.35079,-0.75988 -6.04545,-2.45455 z M -73.06518,368.10553 c -4.71176,-4.71176 -4.68438,-10.52207 0.0704,-14.92861 7.21944,-6.69076 19.2883,0.581 16.88127,10.17135 -1.85165,7.37756 -11.59655,10.11234 -16.95163,4.75726 z m 247.8791,0.24274 c -6.69889,-6.69889 -2.67826,-17.58612 6.49452,-17.58612 7.69014,0 12.00117,5.8274 9.91105,13.39719 -1.82704,6.61698 -11.5061,9.0884 -16.40557,4.18893 z"
         id="path5744"
         inkscape:connector-curvature="0" />
      <path
         style="fill:#4d4d4d"
         d="m 56.31871,890.6348 c -3.025,-0.46517 -10.225,-1.30706 -16,-1.87087 -155.80987,-15.21164 -271.18675,-130.3985 -285.97276,-285.50178 -0.52431,-5.5 -1.38223,-13.16622 -1.90649,-17.03603 -0.57945,-4.27728 -0.6022,-9.5705 -0.058,-13.5 0.49235,-3.55519 1.35094,-11.18897 1.908,-16.96397 14.80479,-153.48241 128.78601,-270.90536 277.52927,-285.90944 16.1058,-1.62462 18.64152,-1.92298 25.71453,-3.02562 4.59839,-0.71686 8.69546,-0.72678 13,-0.0315 3.45701,0.55841 11.23547,1.44897 17.28547,1.97902 155.01627,13.58104 271.14587,129.70382 286.5043,286.48749 0.53878,5.5 1.39552,12.90878 1.90387,16.46397 0.56357,3.94138 0.56567,9.2098 0.005,13.5 -0.5054,3.86981 -1.36165,11.53603 -1.90277,17.03603 -15.14683,153.95283 -130.19182,271.5853 -279.25012,285.53071 -6.74336,0.63089 -16.58935,1.78207 -21.87998,2.55818 -5.29063,0.77611 -10.01563,1.34775 -10.5,1.27031 -0.484,-0.0774 -3.3553,-0.52139 -6.3803,-0.98655 z m 43.5,-30.30125 c 95.72742,-12.78655 179.42713,-72.8146 219.70867,-157.5714 7.19266,-15.13416 9.04857,-19.70101 13.85496,-34.09312 C 419.25508,411.53469 125.8825,191.39976 -97.15723,345.60954 -311.14082,493.55789 -224.99412,834.93803 32.81871,860.67517 c 6.05,0.60397 12.35,1.28564 14,1.51483 6.05149,0.84058 42.31914,-0.42977 53,-1.85645 z M 52.62447,842.34998 c -5.66479,-4.87013 -4.6341,-64.36091 1.18108,-68.17116 10.18153,-6.6712 12.61655,0.5481 12.28462,36.42116 -0.29668,32.06312 -0.80491,34.16217 -8.27146,34.16217 -1.31366,0 -3.65107,-1.08548 -5.19424,-2.41217 z M -69.57122,805.36664 c -9.79085,-5.42665 -4.07157,-20.14679 6.96973,-17.93853 8.2175,1.6435 9.55042,13.8883 1.94022,17.82369 -3.54312,1.83221 -5.75989,1.86079 -8.90995,0.11484 z m 247.66507,-0.16329 c -7.04154,-3.82131 -6.51127,-13.9822 0.89111,-17.07511 11.26496,-4.7068 19.18298,11.52356 8.35377,17.12356 -3.60873,1.86614 -5.7374,1.85499 -9.24488,-0.0485 z M -68.48062,729.73447 c -5.84265,-5.44325 -4.47371,-8.40702 10.6866,-23.13667 6.387,-6.20556 20.61273,-20.0746 31.61273,-30.82008 11,-10.74549 36.9875,-36.12163 57.75,-56.39143 26.43625,-25.8089 37.74826,-37.49403 37.74418,-38.98916 -0.003,-1.17424 -2.96937,-10.68498 -6.59151,-21.13498 -3.62213,-10.45 -7.61625,-22.15 -8.87581,-26 -1.25957,-3.85 -6.20788,-18.25 -10.99625,-32 -4.78836,-13.75 -9.74607,-28.15 -11.01713,-32 -1.27106,-3.85 -7.30657,-21.56421 -13.41225,-39.36491 C 6.45705,395.02021 6.02104,392.96891 9.77326,389.2167 c 6.66833,-6.66834 11.541,-1.86004 18.29067,18.04907 2.79627,8.24801 7.5665,22.19638 10.6005,30.99638 3.03401,8.8 7.98661,23.2 11.00579,32 3.01918,8.8 10.52198,30.625 16.67288,48.5 26.04948,75.70177 24.64239,66.20114 11.6427,78.61118 -4.4919,4.28815 -16.71709,16.14759 -27.16709,26.35432 -10.45,10.20673 -28.675,27.98963 -40.5,39.51756 -11.825,11.52793 -30.95,30.21438 -42.5,41.52544 -30.01355,29.39265 -30.89493,29.99879 -36.29933,24.96382 z m -82.12394,-21.56121 c -6.40803,-5.392 -2.19834,-16.41111 6.26962,-16.41111 9.88541,0 13.57748,13.25196 4.96939,17.83666 -3.5995,1.9171 -7.91737,1.36943 -11.23901,-1.42555 z m 418.42327,1.38107 c -8.38251,-4.80736 -4.62136,-17.79218 5.15365,-17.79218 5.08383,0 9.34635,4.485 9.34635,9.83418 0,6.96929 -8.29033,11.51925 -14.5,7.958 z M -204.36592,573.75517 c -4.69228,-1.89056 -5.83574,-9.21607 -2.00092,-12.81871 3.74342,-3.51675 63.19344,-3.39149 66.51124,0.14014 3.17125,3.37565 2.951,8.92944 -0.46055,11.61297 -2.84483,2.23774 -58.82886,3.16915 -64.04977,1.0656 z m 460.00581,-0.18175 c -2.81139,-1.3592 -4.62039,-5.77093 -3.76456,-9.18086 1.38097,-5.50222 2.18792,-5.63041 35.44338,-5.63041 25.32698,0 30.91571,0.25266 32.66323,1.47667 4.45829,3.12271 3.6945,11.12804 -1.27787,13.39361 -3.28299,1.49583 -59.95781,1.44279 -63.06418,-0.059 z m -407.3981,-110.73435 c -8.91758,-8.91757 3.33011,-21.62486 13.00019,-13.48803 6.48169,5.45398 2.19309,16.41111 -6.42327,16.41111 -2.70513,0 -4.41282,-0.75897 -6.57692,-2.92308 z m 417.15365,0.33419 c -2.55206,-2.14741 -3.07673,-3.31787 -3.07673,-6.86364 0,-8.93818 9.74697,-12.95435 16.07692,-6.62439 8.74554,8.74553 -3.51667,21.46788 -13.00019,13.48803 z M 52.62447,382.34873 c -2.80576,-2.41341 -2.80576,-2.41341 -2.80576,-33.58658 0,-34.34032 0.3864,-36 8.38145,-36 10.29182,0 12.75223,67.14718 2.60182,71.00636 -3.84835,1.46314 -5.07313,1.2505 -8.17751,-1.41978 z m -122.30576,-12.6943 c -8.54075,-3.3512 -7.54183,-16.21228 1.43418,-18.46512 10.94011,-2.74579 16.42622,13.80843 6.01745,18.1575 -3.8821,1.62204 -4.08084,1.63025 -7.45163,0.30762 z m 247.357,0.11614 c -5.57102,-2.24819 -7.26726,-11.18907 -2.94312,-15.51321 3.55836,-3.55836 7.28359,-4.17286 11.52613,-1.90131 10.58256,5.66614 2.57326,21.91663 -8.58301,17.41452 z"
         id="path5742"
         inkscape:connector-curvature="0" />
    </g>
  </g>
</svg>
