<?xml version="1.0" encoding="UTF-8" standalone="no"?>
<svg xmlns:rdf="http://www.w3.org/1999/02/22-rdf-syntax-ns#" xmlns="http://www.w3.org/2000/svg" enable-background="new 0 0 48 48" xml:space="preserve" viewBox="0 0 48 48" version="1.1" y="0px" x="0px" xmlns:cc="http://creativecommons.org/ns#" xmlns:xlink="http://www.w3.org/1999/xlink" xmlns:dc="http://purl.org/dc/elements/1.1/"><defs><clipPath id="b" clipPathUnits="userSpaceOnUse"><circle cy="30.984" cx="16.085" r="12.486" fill="none"/></clipPath><radialGradient id="a" gradientUnits="userSpaceOnUse" cy="25.368" cx="23.832" gradientTransform="matrix(-1.5397 -2.2781e-8 2.7577e-8 -1.8638 63.928 72.166)" r="12.636"><stop stop-color="#3c3c3c" offset="0"/><stop stop-color="#c8c8c8" offset="1"/></radialGradient></defs><path fill="#fff" d="m35.93 3.9772h-9.7018v25.872h17.787v-18.595c0-3.3334-6.4679-0.80848-6.4679-0.80848 0.80848-3.2339 0-6.4679-1.617-6.4679z"/><path fill="#333" d="m37.342 4.0241h-11.135-1.4846v1.4847 23.754 1.4847h1.4846 16.331 1.4847v-1.4847-17.816-1.4847l-6.6809-5.9386zm5.1963 25.239h-16.331v-23.754h8.9079c1.4847 0 2.227 2.9693 1.4847 5.9386 0 0 5.9386-2.3183 5.9386 0.74233v17.073z"/><g><circle cx="16.057" stroke="#3c3c3c" cy="31.011" r="12.785" stroke-width=".30718" fill="url(#a)"/><g clip-path="url(#b)" stroke="#e6e6e6" stroke-linecap="round" fill="none"><path d="m4 34c8-6 9.4353-15.195 9.4353-15.195"/><path d="m6.0309 38.491c7.9691-15.491 19.701-15.811 19.701-15.811"/><path d="m3.7266 31.032c13.851-3.032 16.461 9.375 16.145 12.003"/><path d="m12.046 42.788c0.954-8.788 12.721-15.788 15.959-16.094"/><path d="m5.2498 24.627c8.0782 0.373 16.192-5.119 16.192-5.119"/><path d="m16.996 17.979c4.9486 1.3613 10.389 17.241 7.708 22.853"/></g><path stroke-linejoin="bevel" d="m14 17v-9h6.2397" stroke="#333" stroke-width="2" fill="none"/></g><path d="m22 8-3-3.9352v7.9802z" fill-rule="evenodd" fill="#333"/></svg>
