<svg id="Layer_1" data-name="Layer 1" xmlns="http://www.w3.org/2000/svg" viewBox="0 0 48 48"><defs><style>.cls-1{fill:#333;}</style></defs><title>ExplainPrediction</title><rect class="cls-1" x="30.07" y="6.8" width="2.23" height="34.4"/><rect class="cls-1" x="6.44" y="33.02" width="31.76" height="8.16"/><polyline class="cls-1" points="38.2 37.1 41.56 37.1 38.2 41.18 38.2 33.02"/><polyline class="cls-1" points="38.2 37.1 41.56 37.1 38.2 33.02 38.2 41.18"/><rect class="cls-1" x="21.61" y="6.8" width="8.45" height="8.16"/><polyline class="cls-1" points="21.61 10.88 18.25 10.88 21.61 14.96 21.61 6.8"/><polyline class="cls-1" points="21.61 10.88 18.25 10.88 21.61 6.8 21.61 14.96"/><rect class="cls-1" x="9.8" y="19.92" width="8.45" height="8.16"/><polyline class="cls-1" points="9.8 24 6.44 24 9.8 28.08 9.8 19.92"/><polyline class="cls-1" points="9.8 24 6.44 24 9.8 19.92 9.8 28.08"/></svg>
