<svg id="Layer_1" data-name="Layer 1" xmlns="http://www.w3.org/2000/svg" viewBox="0 0 48 48"><defs><style>.cls-1{fill:#333;}.cls-2{fill:#b2b2b2;}.cls-3{fill:#666;}</style></defs><title>ExplainModel</title><rect class="cls-1" x="22.88" y="6.83" width="2.23" height="34.33"/><path class="cls-1" d="M35.51,11.32A4.42,4.42,0,1,0,31,15.67,4.42,4.42,0,0,0,35.51,11.32Z"/><path class="cls-2" d="M10.93,36.81a4.42,4.42,0,1,0-4.48,4.36A4.43,4.43,0,0,0,10.93,36.81Z"/><path class="cls-3" d="M21.32,24a4.42,4.42,0,1,0-4.48,4.35A4.41,4.41,0,0,0,21.32,24Z"/><path class="cls-1" d="M45.91,11.32a4.42,4.42,0,1,0-4.48,4.35A4.44,4.44,0,0,0,45.91,11.32Z"/><path class="cls-3" d="M21.32,36.81a4.42,4.42,0,1,0-4.48,4.36A4.41,4.41,0,0,0,21.32,36.81Z"/></svg>
