<?xml version="1.0" encoding="utf-8"?>
<!-- Generator: Adobe Illustrator 22.0.1, SVG Export Plug-In . SVG Version: 6.00 Build 0)  -->
<svg version="1.1" id="Layer_1" xmlns="http://www.w3.org/2000/svg" xmlns:xlink="http://www.w3.org/1999/xlink" x="0px" y="0px"
	 viewBox="0 0 48 48" style="enable-background:new 0 0 48 48;" xml:space="preserve">
<style type="text/css">
	.st0{fill:#707070;stroke:#707070;stroke-width:0.25;stroke-linecap:round;stroke-linejoin:round;stroke-miterlimit:10;}
	.st1{fill:#333333;}
</style>
<g>
	<path class="st0" d="M14.5,38h21.7l-3.1-8.6l-2,2.4l-3.5-5l-4.5,6.9C23.2,33.8,14.9,32.6,14.5,38z"/>
	<circle class="st0" cx="19.5" cy="28.4" r="2.7"/>
	<path class="st1" d="M38.2,42.1H12.6c-0.7,0-1.3-0.6-1.3-1.3v-18c0-0.7,0.6-1.3,1.3-1.3h25.6c0.7,0,1.3,0.6,1.3,1.3v18
		C39.4,41.5,38.9,42.1,38.2,42.1z M12.7,40.7h25.4V23H12.7V40.7z"/>
	<path class="st0" d="M8.7,16.9h14.6l-2.1-5.8l-1.3,1.6l-2.3-3.4l-3,4.7C14.5,14.1,8.9,13.3,8.7,16.9z"/>
	<circle class="st0" cx="12" cy="10.5" r="1.8"/>
	<path class="st1" d="M24.6,19.7H7.3c-0.5,0-0.8-0.4-0.8-0.8V6.8c0-0.5,0.4-0.8,0.8-0.8h17.3c0.5,0,0.8,0.4,0.8,0.8v12.1
		C25.4,19.3,25.1,19.7,24.6,19.7z M7.4,18.8h17.1V6.8H7.4V18.8z"/>
	<path class="st0" d="M29.6,15.9H40l-1.5-4.1L37.6,13l-1.6-2.4l-2.1,3.3C33.8,13.9,29.8,13.3,29.6,15.9z"/>
	<circle class="st0" cx="32" cy="11.4" r="1.3"/>
	<path class="st1" d="M40.9,17.9H28.7c-0.3,0-0.6-0.3-0.6-0.6V8.7c0-0.3,0.3-0.6,0.6-0.6h12.2c0.3,0,0.6,0.3,0.6,0.6v8.5
		C41.5,17.6,41.2,17.9,40.9,17.9z M28.8,17.2h12.1V8.8H28.8V17.2z"/>
</g>
</svg>
