<?xml version="1.0" encoding="UTF-8"?>
<!-- Created with Inkscape (http://www.inkscape.org/) -->
<svg width="140.36mm" height="140.29mm" version="1.1" viewBox="0 0 497.32096 497.08415" xmlns="http://www.w3.org/2000/svg" >
 <g transform="translate(-145.75 -211.68)">
  <g stroke-width="5.9524px" aria-label="IP[y]">
   <path d="m172.78 373.49h90.353v18.528h-34.114v125.67h34.114v18.528h-90.353v-18.528h34.114v-125.67h-34.114z" stroke-width="5.9524px"/>
   <path d="m328.63 391.58v61.144h25.504q15.259 0 23.76-8.0653 8.6103-8.0653 8.6103-22.561t-8.5013-22.452q-8.5013-8.0653-23.869-8.0653zm-22.016-18.092h47.52q27.248 0 41.308 12.425 14.06 12.316 14.06 36.185 0 24.087-14.06 36.403-13.951 12.316-41.308 12.316h-25.504v65.395h-22.016z"/>
   <path d="m437.05 402.63h33.643v11.346h-19.043v122.19h19.043v11.346h-33.643z" fill="gray"/>
   <path d="m541.07 497.53q-3.6499 9.2834-9.2834 24.438-7.8552 20.947-10.553 25.549-3.6499 6.189-9.1248 9.2834-5.4748 3.0945-12.775 3.0945h-11.743v-12.219h8.6487q6.427 0 10.077-3.7292 3.6499-3.7292 9.2834-19.281l-34.357-87.439h15.472l26.343 69.507 25.946-69.507h15.472z"/>
   <path d="m606.78 402.63v144.89h-33.643v-11.346h19.043v-122.19h-19.043v-11.346z" fill="gray"/>
  </g>
 </g>
</svg>
