<?xml version="1.0" encoding="utf-8"?>
<!-- Generator: Adobe Illustrator 16.1.0, SVG Export Plug-In . SVG Version: 6.00 Build 0)  -->
<!DOCTYPE svg PUBLIC "-//W3C//DTD SVG 1.1//EN" "http://www.w3.org/Graphics/SVG/1.1/DTD/svg11.dtd">
<svg version="1.1" id="Layer_1" xmlns="http://www.w3.org/2000/svg" xmlns:xlink="http://www.w3.org/1999/xlink" x="0px" y="0px"
	 width="48px" height="48px" viewBox="0 0 48 48" enable-background="new 0 0 48 48" xml:space="preserve">
<g>
	<path fill="none" d="M14.001,28.5c0.788,0,1.428,0.612,1.487,1.388l0.022,0.006c0.057-0.778,0.698-1.394,1.49-1.394
		c0.149,0,0.291,0.028,0.427,0.069l1.094-1.494l-0.361-0.137c-0.275,0.34-0.69,0.562-1.161,0.562c-0.829,0-1.501-0.672-1.501-1.498
		c0-0.204,0.042-0.398,0.115-0.575L8,18.573v2.846l5.909,7.091C13.94,28.508,13.969,28.5,14.001,28.5z"/>
	<path fill="none" d="M32.519,31.184l-6.25-1.39c-0.265,0.423-0.732,0.706-1.267,0.706c-0.829,0-1.501-0.672-1.501-1.498
		c0-0.014,0.003-0.026,0.004-0.039l-0.334-0.127l-2.233,2.537l2.833,0.773c0.271-0.391,0.721-0.646,1.231-0.646
		c0.827,0,1.499,0.672,1.499,1.502c0,0.064-0.011,0.126-0.019,0.188l3.352,1.672l2.67-0.891c0.017-0.815,0.679-1.472,1.498-1.472
		C33.234,32.5,32.609,31.923,32.519,31.184z"/>
	<path fill="none" d="M24.624,25.671l7.068-7.951c-0.118-0.214-0.191-0.456-0.191-0.718c0-0.83,0.672-1.502,1.501-1.502
		c0.459,0,0.865,0.212,1.141,0.538l1.213-0.455l-0.497-0.355c-0.244,0.171-0.538,0.272-0.857,0.272c-0.38,0-0.724-0.146-0.989-0.379
		l-6.537,3.632c0.014,0.081,0.025,0.164,0.025,0.249c0,0.826-0.672,1.498-1.499,1.498c-0.149,0-0.291-0.028-0.427-0.069
		l-4.515,6.183l2.816,1.057L24.624,25.671z"/>
	<path fill="none" d="M25.001,34.5c-0.794,0-1.438-0.619-1.491-1.396l-3.305-0.898l-0.916,1.041
		c0.077,0.131,0.138,0.272,0.172,0.426l4.5,2.25c0.27-0.26,0.635-0.422,1.04-0.422c0.479,0,0.901,0.229,1.176,0.58l2.32-0.772
		l-2.458-1.229C25.77,34.338,25.404,34.5,25.001,34.5z"/>
	<path fill="none" d="M12.955,28.928L8,22.981v7.37l4.53-0.646C12.59,29.402,12.742,29.134,12.955,28.928z"/>
	<path fill="none" d="M17.001,31.5c0.676,0,1.242,0.452,1.429,1.07c0.041,0.012,0.084,0.022,0.124,0.038l0.603-0.688l-1.761-0.479
		C17.269,31.476,17.138,31.5,17.001,31.5z"/>
	<path fill="none" d="M12.678,30.694L8,31.362v4.328l5.988-4.191C13.417,31.494,12.927,31.167,12.678,30.694z"/>
	<path fill="none" d="M15.5,33.002c0-0.28,0.082-0.539,0.214-0.763l-0.384-0.461L8,36.91v1.976l8.336-4.548
		C15.842,34.093,15.5,33.589,15.5,33.002z"/>
	<path fill="none" d="M16.209,31.27l0.273,0.328c0.162-0.061,0.335-0.098,0.519-0.098C16.709,31.5,16.439,31.413,16.209,31.27z"/>
	<path fill="none" d="M18.5,30.002c0,0.239-0.062,0.462-0.162,0.663l1.546,0.422l2.297-2.625l-2.72-1.03l-1.242,1.7
		C18.395,29.378,18.5,29.677,18.5,30.002z"/>
	<path fill="#333333" d="M14.866,31.221c-0.245,0.175-0.542,0.279-0.865,0.279c-0.004,0-0.009-0.001-0.013-0.001L8,35.69v1.22
		l7.331-5.132L14.866,31.221z"/>
	<polygon fill="#333333" points="19.885,31.087 20.937,31.373 23.17,28.836 22.182,28.462 	"/>
	<path fill="#333333" d="M19.461,27.432l-0.939-0.356l-1.094,1.494c-0.136-0.041-0.278-0.069-0.427-0.069
		c-0.792,0-1.434,0.615-1.49,1.394l0.554,0.151l1.241,0.338l1.033,0.282c0.1-0.201,0.162-0.424,0.162-0.663
		c0-0.325-0.105-0.624-0.281-0.87L19.461,27.432z"/>
	<path fill="#333333" d="M18.42,34.232l-0.354-0.179c-0.272,0.275-0.648,0.446-1.065,0.446c-0.151,0-0.294-0.029-0.431-0.07
		c-0.082-0.024-0.159-0.055-0.234-0.092L8,38.886V40h0.043l8.96-4.887c0.266,0.237,0.613,0.387,0.998,0.387
		c0.578,0,1.073-0.331,1.324-0.81L18.42,34.232z"/>
	<path fill="#333333" d="M20.205,32.205l-1.049-0.285l-0.603,0.688c-0.04-0.016-0.083-0.026-0.124-0.038
		c0.013,0.044,0.031,0.087,0.04,0.133c0.02,0.097,0.03,0.196,0.03,0.299c0,0.062-0.011,0.12-0.018,0.18l0.6,0.3l0.379,0.19
		c-0.034-0.153-0.095-0.295-0.172-0.426L20.205,32.205z"/>
	<path fill="#333333" d="M16.255,31.131l-0.208-0.057l0.107,0.129l-0.022,0.016c0.025,0.018,0.051,0.034,0.078,0.051
		c0.23,0.144,0.5,0.23,0.792,0.23c0.137,0,0.268-0.024,0.394-0.059L16.255,31.131z"/>
	<path fill="#666666" d="M12.5,30.002c0-0.102,0.011-0.201,0.03-0.297L8,30.352v1.011l4.678-0.668
		C12.568,30.486,12.5,30.253,12.5,30.002z"/>
	<path fill="#666666" d="M15.511,29.894l-0.022-0.006c0.003,0.038,0.012,0.075,0.012,0.114C15.5,29.965,15.508,29.93,15.511,29.894z
		"/>
	<rect x="6" y="40" fill="#B2B2B2" width="0" height="2"/>
	<polygon fill="#B2B2B2" points="8,40.023 8.043,40 8,40 	"/>
	<polygon fill="#B2B2B2" points="8.043,40 8,40.023 8,40 8,38.886 8,36.91 8,35.69 8,31.362 8,30.352 8,22.981 8,21.419 8,18.573 
		8,17.227 8,6 6,6 6,40 6,42 8,42 42,42 42,40 	"/>
	<path fill="#333333" d="M37.464,15.859l3.711-1.392l-0.352-0.936l-4.34,1.627l-1.048-0.748c0.038-0.131,0.064-0.267,0.064-0.409
		c0-0.83-0.672-1.502-1.499-1.502c-0.829,0-1.501,0.672-1.501,1.502c0,0.084,0.012,0.165,0.025,0.245l-6.538,3.632
		c-0.264-0.232-0.607-0.379-0.986-0.379c-0.829,0-1.501,0.672-1.501,1.502c0,0.33,0.11,0.632,0.292,0.879l-4.672,6.38l0.94,0.353
		l4.515-6.183c0.136,0.041,0.277,0.069,0.427,0.069c0.827,0,1.499-0.672,1.499-1.498c0-0.085-0.011-0.168-0.025-0.249l6.537-3.632
		c0.265,0.232,0.608,0.379,0.989,0.379c0.319,0,0.614-0.102,0.857-0.272l0.497,0.355l-1.213,0.455
		c-0.275-0.326-0.682-0.538-1.141-0.538c-0.829,0-1.501,0.672-1.501,1.502c0,0.262,0.073,0.504,0.191,0.718l-7.068,7.951
		l-1.749,1.999l0.983,0.368c0.047-0.056,0.097-0.107,0.151-0.156l1.364-1.55l7.062-7.944c0.175,0.071,0.365,0.112,0.565,0.112
		c0.827,0,1.499-0.672,1.499-1.498c0-0.01-0.003-0.02-0.003-0.029l1.838-0.689l4.374,3.124l0.581-0.814L37.464,15.859z"/>
	<path fill="#666666" d="M23.858,28.038l0.01,0.004l0.141-0.16C23.955,27.931,23.905,27.982,23.858,28.038z"/>
	<path fill="#666666" d="M35.408,30.5c-0.207-0.582-0.756-1-1.407-1c-0.537,0-1.003,0.283-1.269,0.707l-6.25-1.385
		c-0.09-0.744-0.715-1.322-1.481-1.322c-0.382,0-0.727,0.147-0.992,0.382l-0.141,0.16l-0.01-0.004l-0.983-0.368l-2.816-1.057
		l-0.94-0.353l-0.622-0.233c0-0.008,0.002-0.017,0.002-0.025c0-0.83-0.672-1.502-1.499-1.502c-0.259,0-0.5,0.072-0.712,0.188
		L8,17.227v1.347l7.615,6.854c-0.074,0.177-0.115,0.371-0.115,0.575c0,0.826,0.672,1.498,1.501,1.498
		c0.471,0,0.886-0.222,1.161-0.562l0.361,0.137l0.939,0.356l2.72,1.03l0.988,0.374l0.334,0.127c0,0.013-0.004,0.025-0.004,0.039
		c0,0.826,0.672,1.498,1.501,1.498c0.535,0,1.002-0.283,1.267-0.706l6.25,1.39c0.09,0.739,0.716,1.316,1.482,1.316
		c0.655,0,1.207-0.424,1.41-1.01L41,31.5v-1H35.408z"/>
	<path fill="#666666" d="M33.001,35.5c-0.405,0-0.771,0.162-1.041,0.423l-0.86-0.429l1.723-0.574c0.275,0.351,0.698,0.58,1.178,0.58
		c0.576,0,1.071-0.329,1.322-0.807l5.607,0.801l0.142-0.99l-5.601-0.799c-0.138-0.688-0.744-1.205-1.469-1.205
		c-0.819,0-1.481,0.656-1.498,1.472l-2.67,0.891l-3.352-1.672c0.008-0.062,0.019-0.124,0.019-0.188c0-0.83-0.672-1.502-1.499-1.502
		c-0.511,0-0.96,0.256-1.231,0.646l-2.833-0.773l-1.052-0.286l-1.546-0.422l-1.033-0.282l-1.241-0.338l-0.554-0.151
		c-0.002,0.036-0.011,0.071-0.011,0.108c0-0.039-0.009-0.076-0.012-0.114c-0.059-0.775-0.699-1.388-1.487-1.388
		c-0.032,0-0.061,0.008-0.092,0.01L8,21.419v1.562l4.955,5.946c-0.212,0.206-0.364,0.475-0.425,0.777
		c-0.019,0.096-0.03,0.195-0.03,0.297c0,0.251,0.068,0.484,0.178,0.692c0.249,0.473,0.739,0.8,1.31,0.805
		c0.004,0,0.009,0.001,0.013,0.001c0.323,0,0.621-0.104,0.865-0.279l0.464,0.558l0.384,0.461c-0.133,0.224-0.214,0.482-0.214,0.763
		c0,0.587,0.342,1.091,0.836,1.336c0.075,0.037,0.152,0.067,0.234,0.092c0.137,0.041,0.28,0.07,0.431,0.07
		c0.417,0,0.793-0.171,1.065-0.446l0.354,0.179l0.904,0.458l4.194,2.12c-0.008,0.063-0.019,0.126-0.019,0.191
		c0,0.826,0.672,1.498,1.501,1.498c0.818,0,1.482-0.658,1.497-1.472l3.264-1.089l1.757,0.879c-0.008,0.061-0.019,0.121-0.019,0.184
		c0,0.826,0.672,1.498,1.501,1.498c0.594,0,1.104-0.35,1.346-0.851l6.591,0.847l0.124-0.992l-6.599-0.824
		C34.315,36.005,33.717,35.5,33.001,35.5z M26.177,36.08c-0.274-0.351-0.697-0.58-1.176-0.58c-0.404,0-0.77,0.162-1.04,0.422
		l-4.5-2.25l-0.379-0.19l-0.6-0.3c0.007-0.06,0.018-0.118,0.018-0.18c0-0.103-0.011-0.202-0.03-0.299
		c-0.009-0.046-0.027-0.089-0.04-0.133c-0.187-0.618-0.752-1.07-1.429-1.07c-0.183,0-0.356,0.037-0.519,0.098l-0.273-0.328
		c-0.027-0.017-0.053-0.033-0.078-0.051l0.022-0.016l-0.107-0.129l0.208,0.057l1.14,0.311l1.761,0.479l1.049,0.285l3.305,0.898
		c0.053,0.777,0.696,1.396,1.491,1.396c0.403,0,0.769-0.162,1.038-0.422l2.458,1.229L26.177,36.08z"/>
</g>
</svg>
