<?xml version="1.0" encoding="UTF-8" standalone="no"?>
<!-- Generator: Adobe Illustrator 16.0.0, SVG Export Plug-In . SVG Version: 6.00 Build 0)  -->

<svg
   xmlns:dc="http://purl.org/dc/elements/1.1/"
   xmlns:cc="http://creativecommons.org/ns#"
   xmlns:rdf="http://www.w3.org/1999/02/22-rdf-syntax-ns#"
   xmlns:svg="http://www.w3.org/2000/svg"
   xmlns="http://www.w3.org/2000/svg"
   xmlns:sodipodi="http://sodipodi.sourceforge.net/DTD/sodipodi-0.dtd"
   xmlns:inkscape="http://www.inkscape.org/namespaces/inkscape"
   version="1.1"
   id="Layer_1"
   x="0px"
   y="0px"
   width="48px"
   height="48px"
   viewBox="0 0 48 48"
   enable-background="new 0 0 48 48"
   xml:space="preserve"
   inkscape:version="0.91 r13725"
   sodipodi:docname="Lookalike.svg"><metadata
     id="metadata17"><rdf:RDF><cc:Work
         rdf:about=""><dc:format>image/svg+xml</dc:format><dc:type
           rdf:resource="http://purl.org/dc/dcmitype/StillImage" /></cc:Work></rdf:RDF></metadata><defs
     id="defs15" /><sodipodi:namedview
     pagecolor="#ffffff"
     bordercolor="#666666"
     borderopacity="1"
     objecttolerance="10"
     gridtolerance="10"
     guidetolerance="10"
     inkscape:pageopacity="0"
     inkscape:pageshadow="2"
     inkscape:window-width="1363"
     inkscape:window-height="845"
     id="namedview13"
     showgrid="false"
     inkscape:snap-to-guides="false"
     inkscape:snap-grids="false"
     inkscape:snap-object-midpoints="true"
     inkscape:zoom="15.229167"
     inkscape:cx="24"
     inkscape:cy="31.180662"
     inkscape:window-x="60"
     inkscape:window-y="0"
     inkscape:window-maximized="0"
     inkscape:current-layer="Layer_1" /><path
     id="path4145"
     d="m 1.1617161,37.071898 c 0,-8.652 0,-17.329 0,-26.005999 0.1163732,-0.415 0.284658,-0.741 0.5464977,-0.951 6.6988765,0 13.4211402,0 20.1445462,0 0.58643,-0.1620004 0.872799,0.701 0.873369,1.551 0.0034,5.080999 0.0023,10.160999 0.0023,15.238999 0,3.109 0.0011,6.219 -0.0029,9.327 0,0.329 -0.0291,0.657 -0.04279,0.955 -0.191103,0.375 -0.355965,0.722 -0.637771,0.776 -0.05305,0.009 -0.102682,0.062 -0.155164,0.075 -0.05704,0.015 -0.115803,0.004 -0.172849,0.004 -6.538578,0 -13.076014,0 -19.6134505,0.002 -0.3280128,0 -0.6155231,-0.146 -0.8305853,-0.604 -0.040503,-0.085 -0.061609,-0.199 -0.1112391,-0.368 z M 2.7036612,12.806899 c 0,7.505999 0,14.957999 0,22.409999 1.2715485,0.092 18.1850268,0.053 18.4822338,-0.04 0,-7.455 0,-14.908 0,-22.369999 -6.164357,0 -12.3173053,0 -18.4822338,0 z"
     stroke-miterlimit="10"
     inkscape:connector-curvature="0"
     style="clip-rule:evenodd;fill:#333333;fill-rule:evenodd;stroke:#333333;stroke-width:0.18882149;stroke-linejoin:miter;stroke-miterlimit:10" /><path
     id="path4147"
     d="m 10.978351,12.706632 c 10.808,0 21.593,0 32.399,0 0,7.461999 0,14.914999 0,22.369999 -0.521,0.093 -30.17,0.132 -32.399,0.04 0,-7.452 0,-14.904 0,-22.409999 z m 19.424,5.816999 c -1.951,3.032 -3.891,6.048 -5.83,9.063 -0.06,-0.054 -0.108,-0.132 -0.147,-0.127 -0.262,0.029 -0.497,-0.074 -0.744,-0.119 -0.266,-0.048 -0.533,-0.031 -0.807,-0.112 -0.28,-0.083 -0.605,-0.003 -0.908,-0.022 -0.29,-0.02 -0.58,-0.063 -0.864,-0.121 -0.328,-0.069 -0.614,0.13 -0.925,0.121 -0.672,-0.021 -1.322,0.064 -1.974,0.237 -0.53,0.143 -1.066,0.256 -1.562,0.499 -0.602,0.295 -1.177,0.645 -1.683,1.078 -0.458,0.393 -0.774,0.92 -1.065,1.444 -0.189,0.343 -0.309,0.725 -0.474,1.124 0,0.088 0,0.223 0,0.348 9.194,0 18.367,0 27.601,0 -1.182,-3.367 -2.311,-6.7 -3.378,-10.055 -0.005,-0.016 -0.027,-0.03 -0.044,-0.037 -0.019,-0.006 -0.041,-0.001 -0.072,-0.001 -0.401,0.549 -0.818,1.095 -1.208,1.659 -0.388,0.563 -0.778,1.123 -1.274,1.786 -0.072,-0.149 -0.101,-0.229 -0.145,-0.296 -0.472,-0.72 -0.914,-1.462 -1.429,-2.149 -0.716,-0.957 -1.379,-1.949 -2.063,-2.928 -0.321,-0.459 -0.656,-0.907 -1.005,-1.392 z m -10.957,-1.557 c -0.848,0 -0.845,0.003 -1.74,0.486 -0.506,0.273 -0.837,0.721 -1.125,1.182 -0.263,0.42 -0.374,0.946 -0.355,1.422 0.03,0.766 0.25,1.5 0.82,2.089 0.605,0.625 1.298,1.008 2.188,1.049 0.668,0.03 1.247,-0.157 1.811,-0.49 0.476,-0.282 0.788,-0.708 1.098,-1.136 0.315,-0.435 0.213,-0.997 0.402,-1.475 -0.173,-0.465 -0.093,-0.994 -0.366,-1.431 -0.294,-0.47 -0.624,-0.918 -1.105,-1.204 -0.515,-0.304 -1.049,-0.581 -1.628,-0.492 z"
     inkscape:connector-curvature="0"
     style="clip-rule:evenodd;fill:none;fill-rule:evenodd" /><path
     style="clip-rule:evenodd;fill:#707070;fill-rule:evenodd;stroke:#707070;stroke-width:0.7238701;stroke-miterlimit:10"
     d="M 13.523438 17.822266 C 12.525034 20.928426 11.533282 24.017654 10.541016 27.107422 C 10.510836 27.052106 10.484794 26.973316 10.464844 26.978516 C 10.330838 27.008225 10.210318 26.901569 10.083984 26.855469 C 9.9479313 26.806289 9.811509 26.825167 9.671875 26.742188 C 9.528662 26.657168 9.3620083 26.73923 9.2070312 26.71875 C 9.0587022 26.699285 8.911396 26.655123 8.765625 26.595703 C 8.598372 26.525016 8.4525494 26.72795 8.2929688 26.71875 C 7.9492561 26.696212 7.6166871 26.783707 7.2832031 26.960938 C 7.0121201 27.107435 6.738068 27.223712 6.484375 27.472656 C 6.176466 27.774871 5.8818549 28.13351 5.6230469 28.578125 C 5.3887909 28.979714 5.226966 29.519825 5.078125 30.056641 C 4.981456 30.408031 4.9203275 30.800224 4.8359375 31.208984 L 4.8359375 31.564453 L 18.953125 31.564453 C 18.348559 28.1151 17.772309 24.699707 17.226562 21.263672 C 17.224013 21.247272 17.211825 21.233763 17.203125 21.226562 C 17.193915 21.220362 17.181866 21.224609 17.166016 21.224609 C 16.960914 21.787037 16.748304 22.346032 16.548828 22.923828 C 16.350885 23.500598 16.150176 24.07469 15.896484 24.753906 C 15.859154 24.600238 15.844766 24.519812 15.822266 24.451172 C 15.58085 23.714586 15.355208 22.954828 15.091797 22.25 C 14.767293 21.380052 14.465314 20.479947 14.15625 19.587891 L 13.548828 19.587891 C 13.166153 19.587891 13.166153 19.201172 13.548828 19.201172 L 14.019531 19.201172 C 13.86141 18.747651 13.696332 18.302135 13.523438 17.822266 z "
     id="path4149" /><path
     id="path4151"
     d="m 8.1312056,19.414197 c 0.335236,-0.05022 0.6438837,0.107868 0.9403947,0.28137 0.278014,0.163229 0.4693296,0.418916 0.6386816,0.687159 0.157792,0.249408 0.111553,0.551324 0.211546,0.816714 -0.109241,0.272809 -0.05029,0.593559 -0.232354,0.841826 -0.179755,0.244272 -0.3595106,0.487403 -0.6346356,0.648349 -0.325988,0.190053 -0.6600677,0.29735 -1.0467457,0.279658 -0.514414,-0.0234 -0.914963,-0.24199 -1.264649,-0.598696 -0.328878,-0.33616 -0.456615,-0.755075 -0.473955,-1.192254 -0.01098,-0.272238 0.05318,-0.571871 0.205188,-0.811578 0.166462,-0.263106 0.357778,-0.518793 0.650242,-0.674602 0.517304,-0.276234 0.516148,-0.277946 1.006287,-0.277946 z"
     stroke-miterlimit="10"
     inkscape:connector-curvature="0"
     style="clip-rule:evenodd;fill:#707070;fill-rule:evenodd;stroke:#707070;stroke-width:0.57435;stroke-miterlimit:10" /><path
     style="clip-rule:evenodd;fill:#333333;fill-rule:evenodd;stroke:#333333;stroke-width:0.18882149;stroke-linejoin:miter;stroke-miterlimit:10"
     inkscape:connector-curvature="0"
     stroke-miterlimit="10"
     d="m 25.521334,37.076925 c 0,-8.652 0,-17.329 0,-26.005999 0.116374,-0.415 0.284658,-0.741 0.546498,-0.951 6.698877,0 13.42114,0 20.144546,0 0.58643,-0.1620004 0.872799,0.701 0.873369,1.551 0.0034,5.080999 0.0023,10.160999 0.0023,15.238999 0,3.109 0.0011,6.219 -0.0029,9.327 0,0.329 -0.0291,0.657 -0.04279,0.955 -0.191103,0.375 -0.355965,0.722 -0.637771,0.776 -0.05305,0.009 -0.102682,0.062 -0.155164,0.075 -0.05704,0.015 -0.115803,0.004 -0.172849,0.004 -6.538578,0 -13.076014,0 -19.61345,0.002 -0.328013,0 -0.615523,-0.146 -0.830586,-0.604 -0.0405,-0.085 -0.06161,-0.199 -0.111239,-0.368 z m 1.541945,-24.264999 c 0,7.505999 0,14.957999 0,22.409999 1.271549,0.092 18.185027,0.053 18.482234,-0.04 0,-7.455 0,-14.908 0,-22.369999 -6.164357,0 -12.317305,0 -18.482234,0 z"
     id="path4203" /><path
     style="clip-rule:evenodd;fill:#707070;fill-rule:evenodd;stroke:#707070;stroke-width:0.7238701;stroke-miterlimit:10"
     inkscape:connector-curvature="0"
     stroke-miterlimit="10"
     d="m 37.88272,17.827551 c 0.179017,0.496863 0.350362,0.956845 0.513524,1.427072 0.350362,1.002946 0.689472,2.019209 1.055179,2.999616 0.263411,0.704828 0.489484,1.464976 0.7309,2.201562 0.0225,0.06864 0.03683,0.149572 0.07416,0.30324 0.253692,-0.679216 0.45368,-1.252913 0.651623,-1.829683 0.199476,-0.577796 0.412762,-1.13715 0.617864,-1.699578 0.01585,0 0.02762,-0.0052 0.03683,10e-4 0.0087,0.0072 0.01995,0.02151 0.0225,0.03791 0.545747,3.436035 1.123205,6.851582 1.727771,10.300935 -4.722984,0 -9.414768,0 -14.117293,0 0,-0.128057 0,-0.266358 0,-0.356511 0.08439,-0.40876 0.145771,-0.800103 0.24244,-1.151493 0.148841,-0.536816 0.310468,-1.07773 0.544724,-1.479319 0.258808,-0.444615 0.552908,-0.802151 0.860817,-1.104366 0.253693,-0.248944 0.527845,-0.364708 0.798928,-0.511206 0.333484,-0.177231 0.665944,-0.265334 1.009657,-0.242796 0.159581,0.0092 0.305864,-0.194647 0.473117,-0.12396 0.145771,0.05942 0.293587,0.104495 0.441916,0.12396 0.154977,0.02048 0.321208,-0.06249 0.464421,0.02253 0.139634,0.08298 0.27671,0.06556 0.412763,0.11474 0.126334,0.0461 0.246533,0.151619 0.380539,0.12191 0.01995,-0.0052 0.04501,0.07479 0.07519,0.130106 0.992266,-3.089768 1.984022,-6.179537 2.982426,-9.285697 z"
     id="path4205" /><path
     style="clip-rule:evenodd;fill:#707070;fill-rule:evenodd;stroke:#707070;stroke-width:0.57435;stroke-miterlimit:10"
     inkscape:connector-curvature="0"
     stroke-miterlimit="10"
     d="m 30.910362,16.759353 c 0.335236,-0.05022 0.643884,0.107868 0.940395,0.28137 0.278014,0.163229 0.46933,0.418916 0.638682,0.687159 0.157791,0.249408 0.111552,0.551324 0.211545,0.816714 -0.109241,0.272809 -0.05029,0.593559 -0.232353,0.841826 -0.179755,0.244272 -0.359511,0.487403 -0.634636,0.648349 -0.325988,0.190053 -0.660068,0.29735 -1.046746,0.279658 -0.514414,-0.0234 -0.914963,-0.24199 -1.264649,-0.598696 -0.328878,-0.33616 -0.456615,-0.755075 -0.473955,-1.192254 -0.01098,-0.272238 0.05318,-0.571871 0.205188,-0.811578 0.166462,-0.263106 0.357778,-0.518793 0.650242,-0.674602 0.517304,-0.276234 0.516148,-0.277946 1.006287,-0.277946 z"
     id="path4207" /><path
     style="fill:#707070;fill-opacity:1;fill-rule:evenodd;stroke:#707070;stroke-width:0.40000001;stroke-linecap:butt;stroke-linejoin:miter;stroke-miterlimit:4;stroke-dasharray:none;stroke-opacity:1"
     d="m 37.630443,17.377836 c -2.06237,3.442874 -3.994335,6.862038 -7.32075,10.534738 l -0.133917,2.81224 7.320751,-0.178555 z"
     id="path4185"
     inkscape:connector-curvature="0"
     sodipodi:nodetypes="ccccc" /></svg>