<?xml version="1.0" encoding="utf-8"?>
<!-- Generator: Adobe Illustrator 24.0.2, SVG Export Plug-In . SVG Version: 6.00 Build 0)  -->
<svg version="1.1" id="Layer_1" xmlns="http://www.w3.org/2000/svg" xmlns:xlink="http://www.w3.org/1999/xlink" x="0px" y="0px"
	 viewBox="0 0 48 48" style="enable-background:new 0 0 48 48;" xml:space="preserve">
<style type="text/css">
	.st0{fill:#333333;}
	.st1{fill:#666666;}
	.st2{fill:#FFFFFF;}
	.st3{fill:#B2B2B2;}
</style>
<g>
	<path class="st0" d="M6,6v36h36V6H6z M40,14v8v1v8v1v8H30h-1H19h-1H8v-8v-1v-8v-1v-8l0,0h10l0,0h1l0,0h10l0,0h1l0,0H40L40,14z"/>
	<polygon class="st1" points="30,14 29,14 29,22 19,22 19,14 18,14 18,22 8,22 8,23 18,23 18,23 19,23 19,23 29,23 29,23 30,23 
		30,23 40,23 40,22 30,22 	"/>
	<polygon class="st1" points="29,31 19,31 18,31 8,31 8,32 18,32 18,40 19,40 19,32 29,32 29,40 30,40 30,32 40,32 40,31 30,31 	"/>
	<rect x="8" y="32" class="st2" width="10" height="8"/>
	<polygon class="st2" points="8,14 18,14 18,14 	"/>
	<rect x="8" y="14" class="st2" width="10" height="8"/>
	<rect x="19" y="32" class="st2" width="10" height="8"/>
	<polygon class="st2" points="19,14 29,14 29,14 	"/>
	<rect x="19" y="14" class="st2" width="10" height="8"/>
	<rect x="30" y="32" class="st2" width="10" height="8"/>
	<polygon class="st2" points="30,14 40,14 40,14 	"/>
	<rect x="30" y="14" class="st2" width="10" height="8"/>
</g>
<g>
	<polyline class="st1" points="32,32 32,31 22,31 21,31 11,31 10,31 0,31 0,32 	"/>
	<polyline class="st1" points="32,23 32,22 22,22 21,22 11,22 10,22 0,22 0,23 	"/>
	<polygon class="st1" points="23,31 23,23 23,23 22,23 22,23 22,31 	"/>
	<polygon class="st1" points="1,31 1,23 1,23 0,23 0,23 0,31 	"/>
	<polygon class="st1" points="12,31 12,23 12,23 11,23 11,23 11,31 	"/>
	<polygon class="st1" points="34,31 34,23 34,23 33,23 33,23 33,31 	"/>
	<rect x="23" y="23" class="st3" width="10" height="8"/>
	<rect x="12" y="23" class="st3" width="10" height="8"/>
	<rect x="1" y="23" class="st3" width="10" height="8"/>
</g>
<g>
	<path class="st0" d="M41.7,29.7c-0.9-1.1-1.8-2.3-2.7-3.4c-0.4-0.5-0.8-0.9-1.1-1.3c-0.3-0.3-0.5-0.7-0.9-0.9
		c-0.1,0-0.2-0.1-0.2-0.1c-0.5-0.2-1-0.1-1.4,0.1c-0.1,0-0.1,0.1-0.2,0.1c-0.2,0.1-0.3,0.3-0.4,0.5c-0.1,0.3,0,0.7-0.1,1
		c0,0.1-0.1,0.2-0.1,0.2c-0.3,0.2-0.9-0.1-1.1,0c-0.3,0-0.5,0.1-0.8,0.3c-0.2,0.1-0.3,0.2-0.4,0.4C32.1,26.7,32,27,32,27.3
		c0,0.2,0.2,0.6,0,0.7c0,0,0,0-0.1,0c-0.2,0.1-0.8-0.3-1-0.4c-0.3,0-0.7-0.1-1,0.1c0,0,0,0,0,0c-0.5,0.4-0.8,1.1-0.6,1.7
		c0.1,0.5,0.4,0.8,0.8,1.1c0,0,0,0,0,0c0,0,0,0,0,0c-0.6-0.5-1.4-1.2-2.1-1.6c-0.7-0.5-3.8-2.9-4.7-2.7c-0.2,0-0.3,0.1-0.5,0.2
		c-0.2,0.1-0.3,0.3-0.4,0.4c-0.2,0.3-0.3,0.6-0.3,1c0.1,1.1,1.6,2,2.4,2.6c1.9,1.3,2.4,1.7,4.2,3.2c0.6,0.5,2.6,2.3,3.1,2.9
		c-0.8,0.1-2.3,0.1-3.1,0.6c-0.1,0.1-0.3,0.2-0.4,0.4c-0.3,0.4-0.4,0.9-0.2,1.4c0.1,0.2,0.2,0.5,0.4,0.6c1,0.9,2.6,0.6,3.8,0.5
		c1.1-0.1,2.1-0.2,3.2-0.2c0.7,0,1.5,0,2.2,0c0.5,0,1.3,0,1.8-0.2c0,0,0,0,0.1,0c0.3-0.2,0.4-0.7,0.6-1c0.3-0.4,0.5-0.8,0.8-1.2
		c0.7-1,1.4-2,2-2.9c0.3-0.5,1-1,0.8-1.7c-0.2-0.7-0.9-1.2-1.3-1.8C42.3,30.4,42,30.1,41.7,29.7z"/>
	<path class="st2" d="M43.8,30.9c-0.2-0.2-0.3-0.4-0.4-0.5c-0.2-0.3-0.4-0.6-0.6-0.9c-0.1-0.1-0.2-0.2-0.3-0.4
		c-0.9-1.2-1.9-2.4-2.7-3.4c-0.3-0.3-0.6-0.7-0.9-1l-0.3-0.4l-0.1-0.2c-0.2-0.3-0.5-0.7-1-0.9c-0.1-0.1-0.3-0.1-0.4-0.2
		c-0.7-0.2-1.5-0.2-2.1,0.1c-0.1,0-0.2,0.1-0.3,0.2c-0.4,0.2-0.6,0.6-0.8,1c-0.1,0.2-0.1,0.4-0.1,0.5c-0.1,0-0.2,0-0.4,0
		c-0.4,0-0.9,0.2-1.3,0.4c-0.3,0.2-0.5,0.4-0.7,0.7c-0.2,0.3-0.3,0.6-0.4,0.9c-0.5,0-1,0.1-1.5,0.4l0,0c-0.4,0.3-0.7,0.6-0.9,1
		c0,0,0,0,0,0c-0.1-0.1-0.2-0.2-0.4-0.3c-2.9-2.1-4.2-2.8-5.1-2.6c-0.3,0.1-0.6,0.2-0.8,0.3c-0.3,0.2-0.5,0.4-0.7,0.7
		c-0.3,0.5-0.5,1.1-0.4,1.6c0.1,1.5,1.6,2.5,2.5,3.1c0.1,0.1,0.2,0.1,0.3,0.2c1.8,1.3,2.4,1.7,4.1,3.1c0.4,0.3,1,0.8,1.5,1.3
		c-0.5,0.1-1,0.3-1.4,0.5c-0.3,0.2-0.5,0.4-0.6,0.6c-0.5,0.7-0.6,1.5-0.3,2.3c0.1,0.3,0.3,0.7,0.7,1c1.2,1.1,2.9,0.9,4.1,0.8
		c0.1,0,0.3,0,0.4,0l0.5,0c0.9-0.1,1.8-0.2,2.6-0.2c0.2,0,0.5,0,0.7,0c0.5,0,1,0,1.5,0c0.1,0,0.2,0,0.3,0c0.6,0,1.4,0,2-0.4
		c0,0,0.1-0.1,0.1-0.1c0.3-0.3,0.5-0.6,0.7-0.9c0.1-0.1,0.1-0.2,0.2-0.3l0.8-1.2l0.7-1.1c0.4-0.6,0.9-1.2,1.3-1.9
		c0.1-0.1,0.1-0.2,0.2-0.3c0.4-0.5,1-1.3,0.8-2.3C44.6,31.8,44.2,31.3,43.8,30.9z M43.8,32.7c0.2,0.7-0.5,1.2-0.8,1.7
		c-0.7,1-1.4,2-2,2.9c-0.3,0.4-0.5,0.8-0.8,1.2c-0.2,0.3-0.4,0.8-0.6,1c0,0,0,0-0.1,0c-0.4,0.3-1.3,0.2-1.8,0.2c-0.7,0-1.4,0-2.2,0
		c-1.1,0-2.1,0.1-3.2,0.2c-1.2,0.1-2.8,0.4-3.8-0.5c-0.2-0.2-0.3-0.4-0.4-0.6c-0.2-0.5-0.1-1,0.2-1.4c0.1-0.1,0.2-0.3,0.4-0.4
		c0.8-0.5,2.2-0.5,3.1-0.6c-0.4-0.6-2.5-2.4-3.1-2.9c-1.8-1.4-2.3-1.8-4.2-3.2c-0.8-0.6-2.3-1.4-2.4-2.6c0-0.4,0.1-0.7,0.3-1
		c0.1-0.2,0.3-0.3,0.4-0.4c0.1-0.1,0.3-0.2,0.5-0.2c0.9-0.2,4,2.2,4.7,2.7c0.7,0.5,1.5,1.1,2.1,1.6c-0.3-0.3-0.7-0.7-0.8-1.1
		c-0.1-0.6,0.1-1.4,0.6-1.7c0,0,0,0,0,0c0.3-0.2,0.7-0.1,1-0.1c0.2,0,0.7,0.4,0.9,0.3c0,0,0.1,0,0.1,0c0.2-0.1,0-0.5,0-0.7
		c0-0.3,0.1-0.6,0.3-0.8c0.1-0.2,0.3-0.3,0.4-0.4c0.2-0.1,0.5-0.2,0.8-0.2c0.3,0,0.9,0.2,1.2,0c0.1,0,0.1-0.1,0.1-0.2
		c0.1-0.3,0-0.7,0.1-1c0.1-0.2,0.2-0.4,0.4-0.5c0.1,0,0.1-0.1,0.2-0.1c0.4-0.2,1-0.2,1.4-0.1c0.1,0,0.2,0.1,0.2,0.1
		c0.4,0.2,0.6,0.6,0.9,0.9c0.4,0.5,0.8,0.9,1.1,1.4c0.9,1.1,1.8,2.2,2.7,3.4c0.3,0.4,0.6,0.7,0.9,1.1C42.9,31.4,43.6,32,43.8,32.7z"
		/>
</g>
</svg>
