<?xml version="1.0" encoding="UTF-8" standalone="no"?>
<!-- Created with Inkscape (http://www.inkscape.org/) -->

<svg
   xmlns:dc="http://purl.org/dc/elements/1.1/"
   xmlns:cc="http://creativecommons.org/ns#"
   xmlns:rdf="http://www.w3.org/1999/02/22-rdf-syntax-ns#"
   xmlns:svg="http://www.w3.org/2000/svg"
   xmlns="http://www.w3.org/2000/svg"
   xmlns:xlink="http://www.w3.org/1999/xlink"
   xmlns:sodipodi="http://sodipodi.sourceforge.net/DTD/sodipodi-0.dtd"
   xmlns:inkscape="http://www.inkscape.org/namespaces/inkscape"
   width="140.35503mm"
   height="140.28819mm"
   viewBox="0 0 497.32096 497.08415"
   id="svg2"
   version="1.1"
   inkscape:version="0.92.1 r15371"
   sodipodi:docname="SignificantGroups.svg">
  <defs
     id="defs4">
    <filter
       style="color-interpolation-filters:sRGB"
       inkscape:label="Greyscale"
       id="filter4708">
      <feColorMatrix
         values="0.31 -0.36 1.75 0 0 0.31 -0.36 1.75 0 0 0.31 -0.36 1.75 0 0 0 0 0 1 0 "
         id="feColorMatrix4706" />
    </filter>
    <clipPath
       clipPathUnits="userSpaceOnUse"
       id="clipPath4534">
      <path
         d="M 0,0 H 239 V 109 H 0 Z"
         id="path4532"
         inkscape:connector-curvature="0" />
    </clipPath>
    <clipPath
       id="p78cbeb929f">
      <rect
         height="217.44"
         width="334.79999"
         x="54"
         y="34.560001"
         id="rect9765" />
    </clipPath>
    <clipPath
       id="clipPath10990">
      <rect
         height="217.44"
         width="334.79999"
         x="54"
         y="34.560001"
         id="rect10988" />
    </clipPath>
    <clipPath
       id="clipPath10994">
      <rect
         height="217.44"
         width="334.79999"
         x="54"
         y="34.560001"
         id="rect10992" />
    </clipPath>
    <path
       inkscape:connector-curvature="0"
       style="stroke:#aaa;stroke-linecap:butt;stroke-linejoin:round"
       id="m9060382648"
       d="m 69.218182,-45.883636 v -7.164712 l 0.304668,-0.09571 0.304668,-0.09679 0.304669,-0.09788 0.304668,-0.09898 0.304668,-0.100095 0.304669,-0.101214 0.304668,-0.102345 0.304668,-0.103483 0.304669,-0.104631 0.304668,-0.10579 0.304668,-0.106956 0.304668,-0.108134 0.304669,-0.10932 0.304668,-0.110516 0.304668,-0.111722 0.304669,-0.112937 0.304668,-0.114163 0.304668,-0.115397 0.304669,-0.116642 0.304668,-0.117896 0.304668,-0.11916 0.304669,-0.120435 0.304668,-0.121718 0.304668,-0.123012 0.304668,-0.124315 0.304669,-0.125629 0.304668,-0.126953 0.304668,-0.128286 0.304669,-0.129629 0.304668,-0.130983 0.304668,-0.132347 0.304669,-0.133719 0.304668,-0.135104 0.304668,-0.136496 0.304668,-0.137901 0.304669,-0.139314 0.304668,-0.140738 0.304668,-0.142171 0.304669,-0.143616 0.304668,-0.14507 0.304668,-0.146535 0.304669,-0.148008 0.304668,-0.149493 0.304668,-0.150988 0.304669,-0.152493 0.304668,-0.154008 0.304668,-0.155533 0.304668,-0.157069 0.304669,-0.158614 0.304668,-0.16017 0.304668,-0.161735 0.304669,-0.163312 0.304668,-0.164898 0.304668,-0.166494 0.304669,-0.1681 0.304668,-0.169717 0.304668,-0.171344 0.304668,-0.17298 0.304669,-0.174628 0.304668,-0.176284 0.304668,-0.177952 0.304669,-0.179628 0.304668,-0.181316 0.304668,-0.183013 0.304669,-0.18472 0.304668,-0.186437 0.304668,-0.188164 0.304669,-0.189902 0.304668,-0.191648 0.304668,-0.193405 0.304668,-0.195172 0.304669,-0.196948 0.304668,-0.198735 0.304668,-0.200531 0.304669,-0.202337 0.304668,-0.204152 0.304668,-0.205977 0.304669,-0.207813 0.304668,-0.209656 0.304668,-0.211511 0.304668,-0.213374 0.304669,-0.215248 0.304668,-0.217129 0.304668,-0.219022 0.304669,-0.220922 0.304668,-0.222833 0.304668,-0.224752 0.304669,-0.226682 0.304668,-0.228619 0.304668,-0.230566 0.304669,-0.232522 0.304668,-0.234487 0.304668,-0.236461 0.304668,-0.238444 0.304669,-0.240435 0.304668,-0.242435 0.304668,-0.244444 0.304669,-0.246462 0.304668,-0.248487 0.304668,-0.250522 0.304669,-0.252564 0.304669,-0.254616 0.30467,-0.256674 0.30467,-0.258742 0.30466,-0.260817 0.30467,-0.262901 0.30467,-0.264991 0.30467,-0.267091 0.30467,-0.269198 0.30467,-0.271312 0.30466,-0.273433 0.30467,-0.275563 0.30467,-0.2777 0.30467,-0.279844 0.30467,-0.281995 0.30466,-0.284153 0.30467,-0.286318 0.30467,-0.28849 0.30467,-0.290669 0.30467,-0.292854 0.30467,-0.295047 0.30467,-0.297244 0.30466,-0.299449 0.30467,-0.301661 0.30467,-0.303877 0.30467,-0.3061 0.30467,-0.308329 0.30467,-0.310564 0.30466,-0.312803 0.30467,-0.31505 0.30467,-0.3173 0.30467,-0.319557 0.30467,-0.321818 0.30466,-0.324085 0.30467,-0.326355 0.30467,-0.328632 0.30467,-0.330912 0.30467,-0.333197 0.30467,-0.335487 0.30466,-0.337779 0.30467,-0.340077 0.30467,-0.342379 0.30467,-0.344683 0.30467,-0.346992 0.30467,-0.349304 0.30466,-0.351619 0.30467,-0.353937 0.30467,-0.356259 0.30467,-0.358583 0.30467,-0.360909 0.30467,-0.363239 0.30466,-0.36557 0.30467,-0.367903 0.30467,-0.37024 0.30467,-0.372577 0.30467,-0.374915 0.30467,-0.377257 0.30466,-0.379598 0.30467,-0.381941 0.30467,-0.384285 0.30467,-0.386629 0.30467,-0.388975 0.30467,-0.39132 0.30466,-0.393667 0.30467,-0.396012 0.30467,-0.398357 0.30467,-0.400703 0.30467,-0.403048 0.30467,-0.405391 0.30466,-0.407735 0.30467,-0.410077 0.30467,-0.412417 0.30467,-0.414757 0.30467,-0.417093 0.30466,-0.41943 0.30467,-0.421762 0.30467,-0.424094 0.30467,-0.426422 0.30467,-0.428747 0.30467,-0.431071 0.30467,-0.43339 0.30466,-0.435706 0.30467,-0.438018 0.30467,-0.440328 0.30467,-0.442632 0.30467,-0.444932 0.30466,-0.447229 0.30467,-0.449519 0.30467,-0.4518 0.30467,-0.45409 0.30467,-0.45636 0.30467,-0.45864 0.30466,-0.46089 0.30467,-0.46316 0.30467,-0.46541 0.30467,-0.46765 0.30467,-0.4699 0.30467,-0.47212 0.30466,-0.47435 v 59.498449 0 h -0.30466 -0.30467 -0.30467 -0.30467 -0.30467 -0.30467 -0.30466 -0.30467 -0.30467 -0.30467 -0.30467 -0.30467 -0.30466 -0.30467 -0.30467 -0.30467 -0.30467 -0.30466 -0.30467 -0.30467 -0.30467 -0.30467 -0.30467 -0.30467 -0.30466 -0.30467 -0.30467 -0.30467 -0.30467 -0.30466 -0.30467 -0.30467 -0.30467 -0.30467 -0.30467 -0.30466 -0.30467 -0.30467 -0.30467 -0.30467 -0.30467 -0.30466 -0.30467 -0.30467 -0.30467 -0.30467 -0.30467 -0.30466 -0.30467 -0.30467 -0.30467 -0.30467 -0.30467 -0.30466 -0.30467 -0.30467 -0.30467 -0.30467 -0.30467 -0.30466 -0.30467 -0.30467 -0.30467 -0.30467 -0.30467 -0.30466 -0.30467 -0.30467 -0.30467 -0.30467 -0.30466 -0.30467 -0.30467 -0.30467 -0.30467 -0.30467 -0.30466 -0.30467 -0.30467 -0.30467 -0.30467 -0.30467 -0.30467 -0.30466 -0.30467 -0.30467 -0.30467 -0.30467 -0.30466 -0.30467 -0.30467 -0.30467 -0.30467 -0.30467 -0.30466 -0.30467 -0.30467 H 99.989681 99.685012 99.380344 99.075676 98.771007 98.466339 98.161671 97.857002 97.552334 97.247666 96.942998 96.638329 96.333661 96.028993 95.724324 95.419656 95.114988 94.810319 94.505651 94.200983 93.896314 93.591646 93.286978 92.98231 92.677641 92.372973 92.068305 91.763636 91.458968 91.1543 90.849631 90.544963 90.240295 89.935627 89.630958 89.32629 89.021622 88.716953 88.412285 88.107617 87.802948 87.49828 87.193612 86.888943 86.584275 86.279607 85.974939 85.67027 85.365602 85.060934 84.756265 84.451597 84.146929 83.84226 83.537592 83.232924 82.928256 82.623587 82.318919 82.014251 81.709582 81.404914 81.100246 80.795577 80.490909 80.186241 79.881572 79.576904 79.272236 78.967568 78.662899 78.358231 78.053563 77.748894 77.444226 77.139558 76.834889 76.530221 76.225553 75.920885 75.616216 75.311548 75.00688 74.702211 74.397543 74.092875 73.788206 73.483538 73.17887 72.874201 72.569533 72.264865 71.960197 71.655528 71.35086 71.046192 70.741523 70.436855 70.132187 69.827518 69.52285 Z" />
    <path
       inkscape:connector-curvature="0"
       style="stroke:#aaa;stroke-linecap:butt;stroke-linejoin:round"
       id="m69282557a7"
       d="m 312.95283,-45.883636 v -59.498454 l 0.30466,0.47435 0.30467,0.47212 0.30467,0.4699 0.30467,0.46765 0.30467,0.46541 0.30467,0.46316 0.30466,0.46089 0.30467,0.45864 0.30467,0.45636 0.30467,0.45409 0.30467,0.4518 0.30466,0.449524 0.30467,0.447229 0.30467,0.444932 0.30467,0.442632 0.30467,0.440328 0.30467,0.438018 0.30466,0.435706 0.30467,0.43339 0.30467,0.431071 0.30467,0.428747 0.30467,0.426422 0.30467,0.424094 0.30466,0.421762 0.30467,0.41943 0.30467,0.417093 0.30467,0.414757 0.30467,0.412417 0.30467,0.410077 0.30466,0.407735 0.30467,0.405391 0.30467,0.403048 0.30467,0.400703 0.30467,0.398357 0.30467,0.396012 0.30466,0.393667 0.30467,0.39132 0.30467,0.388975 0.30467,0.386629 0.30467,0.384285 0.30467,0.381941 0.30466,0.379598 0.30467,0.377257 0.30467,0.374915 0.30467,0.372577 0.30467,0.37024 0.30467,0.367903 0.30466,0.36557 0.30467,0.363239 0.30467,0.360909 0.30467,0.358583 0.30467,0.356259 0.30467,0.353937 0.30466,0.351619 0.30467,0.349304 0.30467,0.346992 0.30467,0.344683 0.30467,0.342379 0.30467,0.340077 0.30466,0.337779 0.30467,0.335487 0.30467,0.333197 0.30467,0.330912 0.30467,0.328632 0.30466,0.326355 0.30467,0.324085 0.30467,0.321818 0.30467,0.319557 0.30467,0.3173 0.30467,0.31505 0.30466,0.312803 0.30467,0.310564 0.30467,0.308329 0.30467,0.3061 0.30467,0.303877 0.30467,0.301661 0.30466,0.299449 0.30467,0.297244 0.30467,0.295047 0.30467,0.292854 0.30467,0.290669 0.30467,0.28849 0.30466,0.286318 0.30467,0.284153 0.30467,0.281995 0.30467,0.279844 0.30467,0.2777 0.30467,0.275563 0.30466,0.273433 0.30467,0.271312 0.30467,0.269198 0.30467,0.267091 0.30467,0.264991 0.30467,0.262901 0.30466,0.260817 0.30467,0.258742 0.30467,0.256674 0.30467,0.254616 0.30467,0.252564 0.30467,0.250522 0.30466,0.248487 0.30467,0.246462 0.30467,0.244444 0.30467,0.242435 0.30467,0.240435 0.30467,0.238444 0.30466,0.236461 0.30467,0.234487 0.30467,0.232522 0.30467,0.230566 0.30467,0.228619 0.30467,0.226682 0.30466,0.224752 0.30467,0.222833 0.30467,0.220922 0.30467,0.219022 0.30467,0.217129 0.30467,0.215248 0.30466,0.213374 0.30467,0.211511 0.30467,0.209656 0.30467,0.207813 0.30467,0.205977 0.30466,0.204152 0.30467,0.202337 0.30467,0.200531 0.30467,0.198735 0.30467,0.196948 0.30467,0.195172 0.30466,0.193405 0.30467,0.191648 0.30467,0.189902 0.30467,0.188164 0.30467,0.186437 0.30467,0.18472 0.30467,0.183013 0.30466,0.181316 0.30467,0.179628 0.30467,0.177952 0.30467,0.176284 0.30467,0.174628 0.30467,0.17298 0.30466,0.171344 0.30467,0.169717 0.30467,0.1681 0.30467,0.166494 0.30467,0.164898 0.30467,0.163312 0.30466,0.161735 0.30467,0.16017 0.30467,0.158614 0.30467,0.157069 0.30467,0.155533 0.30466,0.154008 0.30467,0.152493 0.30467,0.150988 0.30467,0.149493 0.30467,0.148008 0.30467,0.146535 0.30466,0.14507 0.30467,0.143616 0.30467,0.142171 0.30467,0.140738 0.30467,0.139314 0.30467,0.137901 0.30466,0.136496 0.30467,0.135104 0.30467,0.133719 0.30467,0.132347 0.30467,0.130983 0.30467,0.129629 0.30466,0.128286 0.30467,0.126953 0.30467,0.125629 0.30467,0.124315 0.30467,0.123012 0.30467,0.121718 0.30466,0.120435 0.30467,0.11916 0.30467,0.117896 0.30467,0.116642 0.30467,0.115397 0.30467,0.114163 0.30466,0.112937 0.30467,0.111722 0.30467,0.110516 0.30467,0.10932 0.30467,0.108134 0.30467,0.106956 0.30466,0.10579 0.30467,0.104631 0.30467,0.103483 0.30467,0.102345 0.30467,0.101214 0.30466,0.100095 0.30467,0.09898 0.30467,0.09788 0.30467,0.09679 0.30467,0.09571 v 7.164712 0 h -0.30467 -0.30467 -0.30467 -0.30467 -0.30466 -0.30467 -0.30467 -0.30467 -0.30467 -0.30466 -0.30467 -0.30467 -0.30467 -0.30467 -0.30467 -0.30466 -0.30467 -0.30467 -0.30467 -0.30467 -0.30467 -0.30466 -0.30467 -0.30467 -0.30467 -0.30467 -0.30467 -0.30466 -0.30467 -0.30467 -0.30467 -0.30467 -0.30467 -0.30466 -0.30467 -0.30467 -0.30467 -0.30467 -0.30467 -0.30466 -0.30467 -0.30467 -0.30467 -0.30467 -0.30467 -0.30466 -0.30467 -0.30467 -0.30467 -0.30467 -0.30466 -0.30467 -0.30467 -0.30467 -0.30467 -0.30467 -0.30466 -0.30467 -0.30467 -0.30467 -0.30467 -0.30467 -0.30466 -0.30467 -0.30467 -0.30467 -0.30467 -0.30467 -0.30467 -0.30466 -0.30467 -0.30467 -0.30467 -0.30467 -0.30467 -0.30466 -0.30467 -0.30467 -0.30467 -0.30467 -0.30466 -0.30467 -0.30467 -0.30467 -0.30467 -0.30467 -0.30466 -0.30467 -0.30467 -0.30467 -0.30467 -0.30467 -0.30466 -0.30467 -0.30467 -0.30467 -0.30467 -0.30467 -0.30466 -0.30467 -0.30467 -0.30467 -0.30467 -0.30467 -0.30466 -0.30467 -0.30467 -0.30467 -0.30467 -0.30467 -0.30466 -0.30467 -0.30467 -0.30467 -0.30467 -0.30467 -0.30466 -0.30467 -0.30467 -0.30467 -0.30467 -0.30467 -0.30466 -0.30467 -0.30467 -0.30467 -0.30467 -0.30467 -0.30466 -0.30467 -0.30467 -0.30467 -0.30467 -0.30467 -0.30466 -0.30467 -0.30467 -0.30467 -0.30467 -0.30466 -0.30467 -0.30467 -0.30467 -0.30467 -0.30467 -0.30466 -0.30467 -0.30467 -0.30467 -0.30467 -0.30467 -0.30466 -0.30467 -0.30467 -0.30467 -0.30467 -0.30467 -0.30466 -0.30467 -0.30467 -0.30467 -0.30467 -0.30467 -0.30466 -0.30467 -0.30467 -0.30467 -0.30467 -0.30467 -0.30466 -0.30467 -0.30467 -0.30467 -0.30467 -0.30467 -0.30466 -0.30467 -0.30467 -0.30467 -0.30467 -0.30467 -0.30466 -0.30467 -0.30467 -0.30467 -0.30467 -0.30467 -0.30466 -0.30467 -0.30467 -0.30467 -0.30467 -0.30466 -0.30467 -0.30467 -0.30467 -0.30467 -0.30467 z" />
  </defs>
  <sodipodi:namedview
     id="base"
     pagecolor="#ffffff"
     bordercolor="#666666"
     borderopacity="1.0"
     inkscape:pageopacity="0.0"
     inkscape:pageshadow="2"
     inkscape:zoom="1.4"
     inkscape:cx="340.90721"
     inkscape:cy="240.94766"
     inkscape:document-units="px"
     inkscape:current-layer="g10962"
     showgrid="false"
     fit-margin-top="0"
     fit-margin-left="0"
     fit-margin-right="0"
     fit-margin-bottom="0"
     inkscape:window-width="1918"
     inkscape:window-height="1042"
     inkscape:window-x="0"
     inkscape:window-y="18"
     inkscape:window-maximized="0" />
  <metadata
     id="metadata7">
    <rdf:RDF>
      <cc:Work
         rdf:about="">
        <dc:format>image/svg+xml</dc:format>
        <dc:type
           rdf:resource="http://purl.org/dc/dcmitype/StillImage" />
        <dc:title></dc:title>
      </cc:Work>
    </rdf:RDF>
  </metadata>
  <g
     inkscape:label="Layer 1"
     inkscape:groupmode="layer"
     id="layer1"
     transform="translate(-145.74728,-211.67799)">
    <text
       xml:space="preserve"
       style="font-style:normal;font-variant:normal;font-weight:normal;font-stretch:normal;font-size:39.07959747px;line-height:163.99999857%;font-family:Monospace;-inkscape-font-specification:Monospace;letter-spacing:0px;word-spacing:0px;writing-mode:lr-tb;fill:black;fill-opacity:1;stroke:none;stroke-width:1.0421226px;stroke-linecap:butt;stroke-linejoin:miter;stroke-opacity:1"
       x="237.26089"
       y="635.79132"
       id="text4819"><tspan
         sodipodi:role="line"
         id="tspan4817"
         x="237.26089"
         y="635.79132"
         style="font-size:138.94969177px;line-height:189.6999836%;stroke-width:1.0421226px">p</tspan></text>
    <g
       id="g11144"
       transform="matrix(1.217614,0,0,1,-88.092269,41.25)">
      <g
         style="stroke-linecap:butt;stroke-linejoin:round"
         id="patch_2"
         transform="matrix(1.25,0,0,1.25,119.44371,193.17444)">
        <path
           inkscape:connector-curvature="0"
           id="path9453"
           style="fill:none;stroke-linecap:butt;stroke-linejoin:round"
           d="M 54,252 H 388.8 V 34.56 H 54 Z" />
      </g>
      <g
         id="g10976"
         transform="matrix(1.25,0,0,1.25,119.44371,193.17444)">
        <g
           id="PolyCollection_1"
           style="stroke-linecap:butt;stroke-linejoin:round">
          <defs
             id="defs9457">
            <path
               d="m 69.218182,-45.883636 v -7.164712 l 0.304668,-0.09571 0.304668,-0.09679 0.304669,-0.09788 0.304668,-0.09898 0.304668,-0.100095 0.304669,-0.101214 0.304668,-0.102345 0.304668,-0.103483 0.304669,-0.104631 0.304668,-0.10579 0.304668,-0.106956 0.304668,-0.108134 0.304669,-0.10932 0.304668,-0.110516 0.304668,-0.111722 0.304669,-0.112937 0.304668,-0.114163 0.304668,-0.115397 0.304669,-0.116642 0.304668,-0.117896 0.304668,-0.11916 0.304669,-0.120435 0.304668,-0.121718 0.304668,-0.123012 0.304668,-0.124315 0.304669,-0.125629 0.304668,-0.126953 0.304668,-0.128286 0.304669,-0.129629 0.304668,-0.130983 0.304668,-0.132347 0.304669,-0.133719 0.304668,-0.135104 0.304668,-0.136496 0.304668,-0.137901 0.304669,-0.139314 0.304668,-0.140738 0.304668,-0.142171 0.304669,-0.143616 0.304668,-0.14507 0.304668,-0.146535 0.304669,-0.148008 0.304668,-0.149493 0.304668,-0.150988 0.304669,-0.152493 0.304668,-0.154008 0.304668,-0.155533 0.304668,-0.157069 0.304669,-0.158614 0.304668,-0.16017 0.304668,-0.161735 0.304669,-0.163312 0.304668,-0.164898 0.304668,-0.166494 0.304669,-0.1681 0.304668,-0.169717 0.304668,-0.171344 0.304668,-0.17298 0.304669,-0.174628 0.304668,-0.176284 0.304668,-0.177952 0.304669,-0.179628 0.304668,-0.181316 0.304668,-0.183013 0.304669,-0.18472 0.304668,-0.186437 0.304668,-0.188164 0.304669,-0.189902 0.304668,-0.191648 0.304668,-0.193405 0.304668,-0.195172 0.304669,-0.196948 0.304668,-0.198735 0.304668,-0.200531 0.304669,-0.202337 0.304668,-0.204152 0.304668,-0.205977 0.304669,-0.207813 0.304668,-0.209656 0.304668,-0.211511 0.304668,-0.213374 0.304669,-0.215248 0.304668,-0.217129 0.304668,-0.219022 0.304669,-0.220922 0.304668,-0.222833 0.304668,-0.224752 0.304669,-0.226682 0.304668,-0.228619 0.304668,-0.230566 0.304669,-0.232522 0.304668,-0.234487 0.304668,-0.236461 0.304668,-0.238444 0.304669,-0.240435 0.304668,-0.242435 0.304668,-0.244444 0.304669,-0.246462 0.304668,-0.248487 0.304668,-0.250522 0.304669,-0.252564 0.304669,-0.254616 0.30467,-0.256674 0.30467,-0.258742 0.30466,-0.260817 0.30467,-0.262901 0.30467,-0.264991 0.30467,-0.267091 0.30467,-0.269198 0.30467,-0.271312 0.30466,-0.273433 0.30467,-0.275563 0.30467,-0.2777 0.30467,-0.279844 0.30467,-0.281995 0.30466,-0.284153 0.30467,-0.286318 0.30467,-0.28849 0.30467,-0.290669 0.30467,-0.292854 0.30467,-0.295047 0.30467,-0.297244 0.30466,-0.299449 0.30467,-0.301661 0.30467,-0.303877 0.30467,-0.3061 0.30467,-0.308329 0.30467,-0.310564 0.30466,-0.312803 0.30467,-0.31505 0.30467,-0.3173 0.30467,-0.319557 0.30467,-0.321818 0.30466,-0.324085 0.30467,-0.326355 0.30467,-0.328632 0.30467,-0.330912 0.30467,-0.333197 0.30467,-0.335487 0.30466,-0.337779 0.30467,-0.340077 0.30467,-0.342379 0.30467,-0.344683 0.30467,-0.346992 0.30467,-0.349304 0.30466,-0.351619 0.30467,-0.353937 0.30467,-0.356259 0.30467,-0.358583 0.30467,-0.360909 0.30467,-0.363239 0.30466,-0.36557 0.30467,-0.367903 0.30467,-0.37024 0.30467,-0.372577 0.30467,-0.374915 0.30467,-0.377257 0.30466,-0.379598 0.30467,-0.381941 0.30467,-0.384285 0.30467,-0.386629 0.30467,-0.388975 0.30467,-0.39132 0.30466,-0.393667 0.30467,-0.396012 0.30467,-0.398357 0.30467,-0.400703 0.30467,-0.403048 0.30467,-0.405391 0.30466,-0.407735 0.30467,-0.410077 0.30467,-0.412417 0.30467,-0.414757 0.30467,-0.417093 0.30466,-0.41943 0.30467,-0.421762 0.30467,-0.424094 0.30467,-0.426422 0.30467,-0.428747 0.30467,-0.431071 0.30467,-0.43339 0.30466,-0.435706 0.30467,-0.438018 0.30467,-0.440328 0.30467,-0.442632 0.30467,-0.444932 0.30466,-0.447229 0.30467,-0.449519 0.30467,-0.4518 0.30467,-0.45409 0.30467,-0.45636 0.30467,-0.45864 0.30466,-0.46089 0.30467,-0.46316 0.30467,-0.46541 0.30467,-0.46765 0.30467,-0.4699 0.30467,-0.47212 0.30466,-0.47435 v 59.498449 0 h -0.30466 -0.30467 -0.30467 -0.30467 -0.30467 -0.30467 -0.30466 -0.30467 -0.30467 -0.30467 -0.30467 -0.30467 -0.30466 -0.30467 -0.30467 -0.30467 -0.30467 -0.30466 -0.30467 -0.30467 -0.30467 -0.30467 -0.30467 -0.30467 -0.30466 -0.30467 -0.30467 -0.30467 -0.30467 -0.30466 -0.30467 -0.30467 -0.30467 -0.30467 -0.30467 -0.30466 -0.30467 -0.30467 -0.30467 -0.30467 -0.30467 -0.30466 -0.30467 -0.30467 -0.30467 -0.30467 -0.30467 -0.30466 -0.30467 -0.30467 -0.30467 -0.30467 -0.30467 -0.30466 -0.30467 -0.30467 -0.30467 -0.30467 -0.30467 -0.30466 -0.30467 -0.30467 -0.30467 -0.30467 -0.30467 -0.30466 -0.30467 -0.30467 -0.30467 -0.30467 -0.30466 -0.30467 -0.30467 -0.30467 -0.30467 -0.30467 -0.30466 -0.30467 -0.30467 -0.30467 -0.30467 -0.30467 -0.30467 -0.30466 -0.30467 -0.30467 -0.30467 -0.30467 -0.30466 -0.30467 -0.30467 -0.30467 -0.30467 -0.30467 -0.30466 -0.30467 -0.30467 H 99.989681 99.685012 99.380344 99.075676 98.771007 98.466339 98.161671 97.857002 97.552334 97.247666 96.942998 96.638329 96.333661 96.028993 95.724324 95.419656 95.114988 94.810319 94.505651 94.200983 93.896314 93.591646 93.286978 92.98231 92.677641 92.372973 92.068305 91.763636 91.458968 91.1543 90.849631 90.544963 90.240295 89.935627 89.630958 89.32629 89.021622 88.716953 88.412285 88.107617 87.802948 87.49828 87.193612 86.888943 86.584275 86.279607 85.974939 85.67027 85.365602 85.060934 84.756265 84.451597 84.146929 83.84226 83.537592 83.232924 82.928256 82.623587 82.318919 82.014251 81.709582 81.404914 81.100246 80.795577 80.490909 80.186241 79.881572 79.576904 79.272236 78.967568 78.662899 78.358231 78.053563 77.748894 77.444226 77.139558 76.834889 76.530221 76.225553 75.920885 75.616216 75.311548 75.00688 74.702211 74.397543 74.092875 73.788206 73.483538 73.17887 72.874201 72.569533 72.264865 71.960197 71.655528 71.35086 71.046192 70.741523 70.436855 70.132187 69.827518 69.52285 Z"
               id="path11060"
               style="stroke:#aaa;stroke-linecap:butt;stroke-linejoin:round"
               inkscape:connector-curvature="0" />
          </defs>
          <g
             clip-path="url(#p78cbeb929f)"
             id="g9461"
             style="stroke-linecap:butt;stroke-linejoin:round">
            <use
               style="fill:#aaa;stroke:#aaa;stroke-linecap:butt;stroke-linejoin:round"
               x="0"
               xlink:href="#m9060382648"
               y="288"
               id="use9459"
               width="100%"
               height="100%" />
          </g>
        </g>
        <g
           id="PolyCollection_2"
           style="stroke-linecap:butt;stroke-linejoin:round">
          <defs
             id="defs9465">
            <path
               d="m 312.95283,-45.883636 v -59.498454 l 0.30466,0.47435 0.30467,0.47212 0.30467,0.4699 0.30467,0.46765 0.30467,0.46541 0.30467,0.46316 0.30466,0.46089 0.30467,0.45864 0.30467,0.45636 0.30467,0.45409 0.30467,0.4518 0.30466,0.449524 0.30467,0.447229 0.30467,0.444932 0.30467,0.442632 0.30467,0.440328 0.30467,0.438018 0.30466,0.435706 0.30467,0.43339 0.30467,0.431071 0.30467,0.428747 0.30467,0.426422 0.30467,0.424094 0.30466,0.421762 0.30467,0.41943 0.30467,0.417093 0.30467,0.414757 0.30467,0.412417 0.30467,0.410077 0.30466,0.407735 0.30467,0.405391 0.30467,0.403048 0.30467,0.400703 0.30467,0.398357 0.30467,0.396012 0.30466,0.393667 0.30467,0.39132 0.30467,0.388975 0.30467,0.386629 0.30467,0.384285 0.30467,0.381941 0.30466,0.379598 0.30467,0.377257 0.30467,0.374915 0.30467,0.372577 0.30467,0.37024 0.30467,0.367903 0.30466,0.36557 0.30467,0.363239 0.30467,0.360909 0.30467,0.358583 0.30467,0.356259 0.30467,0.353937 0.30466,0.351619 0.30467,0.349304 0.30467,0.346992 0.30467,0.344683 0.30467,0.342379 0.30467,0.340077 0.30466,0.337779 0.30467,0.335487 0.30467,0.333197 0.30467,0.330912 0.30467,0.328632 0.30466,0.326355 0.30467,0.324085 0.30467,0.321818 0.30467,0.319557 0.30467,0.3173 0.30467,0.31505 0.30466,0.312803 0.30467,0.310564 0.30467,0.308329 0.30467,0.3061 0.30467,0.303877 0.30467,0.301661 0.30466,0.299449 0.30467,0.297244 0.30467,0.295047 0.30467,0.292854 0.30467,0.290669 0.30467,0.28849 0.30466,0.286318 0.30467,0.284153 0.30467,0.281995 0.30467,0.279844 0.30467,0.2777 0.30467,0.275563 0.30466,0.273433 0.30467,0.271312 0.30467,0.269198 0.30467,0.267091 0.30467,0.264991 0.30467,0.262901 0.30466,0.260817 0.30467,0.258742 0.30467,0.256674 0.30467,0.254616 0.30467,0.252564 0.30467,0.250522 0.30466,0.248487 0.30467,0.246462 0.30467,0.244444 0.30467,0.242435 0.30467,0.240435 0.30467,0.238444 0.30466,0.236461 0.30467,0.234487 0.30467,0.232522 0.30467,0.230566 0.30467,0.228619 0.30467,0.226682 0.30466,0.224752 0.30467,0.222833 0.30467,0.220922 0.30467,0.219022 0.30467,0.217129 0.30467,0.215248 0.30466,0.213374 0.30467,0.211511 0.30467,0.209656 0.30467,0.207813 0.30467,0.205977 0.30466,0.204152 0.30467,0.202337 0.30467,0.200531 0.30467,0.198735 0.30467,0.196948 0.30467,0.195172 0.30466,0.193405 0.30467,0.191648 0.30467,0.189902 0.30467,0.188164 0.30467,0.186437 0.30467,0.18472 0.30467,0.183013 0.30466,0.181316 0.30467,0.179628 0.30467,0.177952 0.30467,0.176284 0.30467,0.174628 0.30467,0.17298 0.30466,0.171344 0.30467,0.169717 0.30467,0.1681 0.30467,0.166494 0.30467,0.164898 0.30467,0.163312 0.30466,0.161735 0.30467,0.16017 0.30467,0.158614 0.30467,0.157069 0.30467,0.155533 0.30466,0.154008 0.30467,0.152493 0.30467,0.150988 0.30467,0.149493 0.30467,0.148008 0.30467,0.146535 0.30466,0.14507 0.30467,0.143616 0.30467,0.142171 0.30467,0.140738 0.30467,0.139314 0.30467,0.137901 0.30466,0.136496 0.30467,0.135104 0.30467,0.133719 0.30467,0.132347 0.30467,0.130983 0.30467,0.129629 0.30466,0.128286 0.30467,0.126953 0.30467,0.125629 0.30467,0.124315 0.30467,0.123012 0.30467,0.121718 0.30466,0.120435 0.30467,0.11916 0.30467,0.117896 0.30467,0.116642 0.30467,0.115397 0.30467,0.114163 0.30466,0.112937 0.30467,0.111722 0.30467,0.110516 0.30467,0.10932 0.30467,0.108134 0.30467,0.106956 0.30466,0.10579 0.30467,0.104631 0.30467,0.103483 0.30467,0.102345 0.30467,0.101214 0.30466,0.100095 0.30467,0.09898 0.30467,0.09788 0.30467,0.09679 0.30467,0.09571 v 7.164712 0 h -0.30467 -0.30467 -0.30467 -0.30467 -0.30466 -0.30467 -0.30467 -0.30467 -0.30467 -0.30466 -0.30467 -0.30467 -0.30467 -0.30467 -0.30467 -0.30466 -0.30467 -0.30467 -0.30467 -0.30467 -0.30467 -0.30466 -0.30467 -0.30467 -0.30467 -0.30467 -0.30467 -0.30466 -0.30467 -0.30467 -0.30467 -0.30467 -0.30467 -0.30466 -0.30467 -0.30467 -0.30467 -0.30467 -0.30467 -0.30466 -0.30467 -0.30467 -0.30467 -0.30467 -0.30467 -0.30466 -0.30467 -0.30467 -0.30467 -0.30467 -0.30466 -0.30467 -0.30467 -0.30467 -0.30467 -0.30467 -0.30466 -0.30467 -0.30467 -0.30467 -0.30467 -0.30467 -0.30466 -0.30467 -0.30467 -0.30467 -0.30467 -0.30467 -0.30467 -0.30466 -0.30467 -0.30467 -0.30467 -0.30467 -0.30467 -0.30466 -0.30467 -0.30467 -0.30467 -0.30467 -0.30466 -0.30467 -0.30467 -0.30467 -0.30467 -0.30467 -0.30466 -0.30467 -0.30467 -0.30467 -0.30467 -0.30467 -0.30466 -0.30467 -0.30467 -0.30467 -0.30467 -0.30467 -0.30466 -0.30467 -0.30467 -0.30467 -0.30467 -0.30467 -0.30466 -0.30467 -0.30467 -0.30467 -0.30467 -0.30467 -0.30466 -0.30467 -0.30467 -0.30467 -0.30467 -0.30467 -0.30466 -0.30467 -0.30467 -0.30467 -0.30467 -0.30467 -0.30466 -0.30467 -0.30467 -0.30467 -0.30467 -0.30467 -0.30466 -0.30467 -0.30467 -0.30467 -0.30467 -0.30467 -0.30466 -0.30467 -0.30467 -0.30467 -0.30467 -0.30466 -0.30467 -0.30467 -0.30467 -0.30467 -0.30467 -0.30466 -0.30467 -0.30467 -0.30467 -0.30467 -0.30467 -0.30466 -0.30467 -0.30467 -0.30467 -0.30467 -0.30467 -0.30466 -0.30467 -0.30467 -0.30467 -0.30467 -0.30467 -0.30466 -0.30467 -0.30467 -0.30467 -0.30467 -0.30467 -0.30466 -0.30467 -0.30467 -0.30467 -0.30467 -0.30467 -0.30466 -0.30467 -0.30467 -0.30467 -0.30467 -0.30467 -0.30466 -0.30467 -0.30467 -0.30467 -0.30467 -0.30467 -0.30466 -0.30467 -0.30467 -0.30467 -0.30467 -0.30466 -0.30467 -0.30467 -0.30467 -0.30467 -0.30467 z"
               id="path11066"
               style="stroke:#aaa;stroke-linecap:butt;stroke-linejoin:round"
               inkscape:connector-curvature="0" />
          </defs>
          <g
             clip-path="url(#p78cbeb929f)"
             id="g9469"
             style="stroke-linecap:butt;stroke-linejoin:round">
            <use
               style="fill:#aaa;stroke:#aaa;stroke-linecap:butt;stroke-linejoin:round"
               x="0"
               xlink:href="#m69282557a7"
               y="288"
               id="use9467"
               width="100%"
               height="100%" />
          </g>
        </g>
        <g
           id="line2d_16"
           style="stroke-linecap:butt;stroke-linejoin:round;stroke:#1a1a1a;stroke-width:6.90772059;stroke-miterlimit:4;stroke-dasharray:none">
          <path
             clip-path="url(#p78cbeb929f)"
             d="m 69.218182,234.95165 4.265356,-1.44185 4.265356,-1.67826 3.960688,-1.79363 3.960688,-2.04281 3.65602,-2.12612 3.65602,-2.37478 3.656019,-2.64032 3.656021,-2.92188 3.65602,-3.21826 3.65602,-3.52786 3.65602,-3.8486 3.65602,-4.17801 3.65602,-4.51313 3.65602,-4.85058 3.96068,-5.63376 3.96069,-6.02046 4.26536,-6.89999 4.57002,-7.8427 4.8747,-8.82907 5.48403,-10.418 6.7027,-13.25134 20.71744,-41.382077 4.8747,-9.019982 4.26535,-7.416294 3.65602,-5.923262 3.35135,-5.023234 3.04669,-4.190759 3.04668,-3.800672 2.74201,-3.063362 2.43735,-2.422876 2.43735,-2.127916 2.43734,-1.822365 2.13268,-1.336706 2.13268,-1.090595 2.13268,-0.840257 2.13268,-0.586652 2.13267,-0.33076 2.13268,-0.07358 2.13268,0.183893 2.13268,0.440644 2.13268,0.695678 2.13267,0.948001 2.13268,1.196643 2.13268,1.440657 2.43735,1.938097 2.43734,2.239842 2.43735,2.530473 2.74201,3.178627 2.74202,3.51109 3.04668,4.265119 3.35135,5.097538 3.65602,5.994825 3.96069,6.936292 4.57003,8.471851 5.48403,10.659019 8.22604,16.54922 11.5774,23.25999 6.09336,11.73638 5.17936,9.51113 4.57003,7.96004 4.26535,7.01912 4.26536,6.59333 3.96069,5.72389 3.96069,5.33087 3.65602,4.56931 3.65602,4.23355 3.65601,3.90298 3.65602,3.5806 3.65602,3.269 3.65602,2.97028 3.65602,2.68616 3.65602,2.41788 3.65602,2.16637 3.96069,2.08313 3.96069,1.83052 4.26536,1.71421 4.26535,1.47401 0.60934,0.1925 v 0"
             style="fill:none;stroke:#1a1a1a;stroke-width:6.90772059;stroke-linecap:square;stroke-linejoin:round;stroke-miterlimit:4;stroke-dasharray:none"
             id="path9748"
             inkscape:connector-curvature="0" />
        </g>
      </g>
      <g
         id="g10962"
         transform="matrix(1.2510964,0,0,1.1453155,119.2011,218.65972)">
        <g
           id="patch_3"
           style="stroke:black;stroke-width:5.3878679;stroke-linecap:butt;stroke-linejoin:round;stroke-miterlimit:4;stroke-dasharray:5.3878679,21.5514716;stroke-dashoffset:0;stroke-opacity:1"
           transform="matrix(1,0,0,0.99155811,76.5,-7.3671493)">
          <path
             d="M 54,252 V 34.56"
             style="fill:none;stroke:black;stroke-width:5.3878679;stroke-linecap:square;stroke-linejoin:miter;stroke-miterlimit:4;stroke-dasharray:5.3878679,21.5514716;stroke-dashoffset:0;stroke-opacity:1"
             id="path9751"
             inkscape:connector-curvature="0" />
        </g>
        <g
           id="patch_3-9"
           style="stroke:black;stroke-width:5.3878679;stroke-linecap:butt;stroke-linejoin:round;stroke-miterlimit:4;stroke-dasharray:5.3878679,21.5514716;stroke-dashoffset:0;stroke-opacity:1"
           transform="matrix(1,0,0,0.99155811,258.04945,-7.3671488)">
          <path
             d="M 54,252 V 34.56"
             style="fill:none;stroke:black;stroke-width:5.3878679;stroke-linecap:square;stroke-linejoin:miter;stroke-miterlimit:4;stroke-dasharray:5.3878679,21.5514716;stroke-dashoffset:0;stroke-opacity:1"
             id="path9751-3"
             inkscape:connector-curvature="0" />
        </g>
      </g>
    </g>
  </g>
</svg>
