<?xml version="1.0" encoding="UTF-8" standalone="no"?>
<!-- Generator: Adobe Illustrator 15.1.0, SVG Export Plug-In . SVG Version: 6.00 Build 0)  -->

<svg
   version="1.1"
   id="Layer_1"
   x="0px"
   y="0px"
   width="48px"
   height="48px"
   viewBox="0 0 48 48"
   enable-background="new 0 0 48 48"
   xml:space="preserve"
   sodipodi:docname="Split.svg"
   inkscape:version="1.1.2 (b8e25be8, 2022-02-05)"
   xmlns:inkscape="http://www.inkscape.org/namespaces/inkscape"
   xmlns:sodipodi="http://sodipodi.sourceforge.net/DTD/sodipodi-0.dtd"
   xmlns="http://www.w3.org/2000/svg"
   xmlns:svg="http://www.w3.org/2000/svg"><defs
   id="defs199">
	
	
	
	
	
	
	
	
	
	
	
	
	
	
	
	
</defs><sodipodi:namedview
   id="namedview197"
   pagecolor="#ffffff"
   bordercolor="#666666"
   borderopacity="1.0"
   inkscape:pageshadow="2"
   inkscape:pageopacity="0.0"
   inkscape:pagecheckerboard="0"
   showgrid="false"
   inkscape:zoom="11.799844"
   inkscape:cx="32.500429"
   inkscape:cy="25.12745"
   inkscape:window-width="1920"
   inkscape:window-height="1027"
   inkscape:window-x="0"
   inkscape:window-y="25"
   inkscape:window-maximized="1"
   inkscape:current-layer="g2384" />
<rect
   x="30"
   y="32"
   fill="#FFFFFF"
   width="10"
   height="8"
   id="rect154" />
<polygon
   fill="#ffffff"
   points="40,14 30,14 40,14 "
   id="polygon180" /><g
   id="g5280"
   transform="translate(14)"><path
     fill="#333333"
     d="M 6.6851211,6 V 42 H 30.352941 V 6 Z m 22.3529409,8 v 8 1 8 9 H 21.806228 15.231834 14.574394 8 v -8 -1 -8 -1 -8 0 h 6.574394 v 0 h 0.65744 v 0 h 6.574394 v 0 h 0.65744 v 0 z"
     id="path156"
     style="stroke-width:0.810826" /><polygon
     fill="#666666"
     points="8,32 18,32 18,40 19,40 19,32 19,31 19,23 19,22 19,14 18,14 18,22 8,22 8,23 18,23 18,31 8,31 "
     id="polygon158" /><rect
     x="8"
     y="32"
     fill="#ffffff"
     width="10"
     height="8"
     id="rect162" /><rect
     x="8"
     y="23"
     fill="#ffffff"
     width="10"
     height="8"
     id="rect164" /><polygon
     fill="#ffffff"
     points="8,14 18,14 "
     id="polygon166" /><rect
     x="8"
     y="14"
     fill="#ffffff"
     width="10"
     height="8"
     id="rect168" /><rect
     x="19"
     y="13.999999"
     fill="#ffffff"
     width="10"
     height="8"
     id="rect168-9" /><rect
     x="19"
     y="23"
     fill="#ffffff"
     width="10"
     height="8"
     id="rect168-9-1" /><rect
     x="19"
     y="32"
     fill="#ffffff"
     width="10"
     height="8"
     id="rect168-9-1-7" /><polygon
     fill="#b2b2b2"
     points="19,14 29,14 "
     id="polygon174" /><rect
     x="19"
     y="22"
     fill="#989898"
     width="10"
     height="1"
     id="rect184"
     style="fill:#666666;fill-opacity:1" /><rect
     x="19"
     y="31"
     fill="#989898"
     width="10"
     height="1"
     id="rect186"
     style="fill:#666666;fill-opacity:1" /></g>

<g
   id="g5200"
   transform="translate(-52.724992,-1.322025)"><path
     fill="#333333"
     d="m 57.034123,7.322025 v 36 h 11.319255 v -36 z m 10.690408,8 v 8 1 8 9 H 64.265869 61.121632 60.807208 57.66297 v -8 -1 -8 -1 -8 0 h 3.144238 v 0 h 0.314424 v 0 h 3.144237 v 0 h 0.314423 v 0 z"
     id="path156-8"
     style="stroke-width:0.560736" /><g
     id="g2384"
     transform="translate(15.724531,-0.677975)"><rect
       x="42"
       y="34"
       fill="#b2b2b2"
       width="10"
       height="8"
       id="rect170-0" /><rect
       x="42"
       y="25"
       fill="#b2b2b2"
       width="10"
       height="8"
       id="rect172-2" /><rect
       x="42"
       y="16"
       fill="#b2b2b2"
       width="10"
       height="8"
       id="rect176-4" /><rect
       x="42"
       y="24"
       fill="#989898"
       width="10"
       height="1"
       id="rect184-8" /><rect
       x="42"
       y="33"
       fill="#989898"
       width="10"
       height="1"
       id="rect186-3" /></g></g><g
   id="g5562"
   transform="matrix(0.18756322,0,0,0.4411177,15.486614,15.149478)"><line
     class="cls-1"
     x1="15.054042"
     y1="26.864761"
     x2="6.0240421"
     y2="26.874762"
     id="line5512"
     style="fill:none;stroke:#333333;stroke-width:2px;stroke-miterlimit:10" /><polygon
     class="cls-2"
     points="31.05,23.99 21.17,28.17 22.94,24 21.16,19.83 "
     id="polygon5514"
     style="fill:#333333"
     transform="translate(-9.275958,2.864761)" /></g></svg>
